<?xml version="1.0" standalone="no"?>
<!DOCTYPE svg PUBLIC "-//W3C//DTD SVG 20010904//EN"
 "http://www.w3.org/TR/2001/REC-SVG-20010904/DTD/svg10.dtd">
<svg version="1.0" xmlns="http://www.w3.org/2000/svg"
 width="5600.000000pt" height="2600.000000pt" viewBox="0 0 5600.000000 2600.000000"
 preserveAspectRatio="xMidYMid meet">

<g transform="translate(0.000000,2600.000000) scale(0.100000,-0.100000)"
fill="#000000" stroke="none">
<path d="M12565 25983 c-632 -26 -1181 -82 -1760 -179 -1663 -281 -3249 -880
-4660 -1762 -430 -269 -545 -348 -990 -677 -436 -324 -885 -715 -1341 -1170
-369 -368 -582 -604 -915 -1011 -460 -564 -897 -1214 -1303 -1939 -83 -147
-393 -774 -469 -945 -263 -598 -472 -1184 -656 -1840 -46 -164 -147 -573 -157
-637 l-7 -43 2238 3 2237 2 53 150 c289 826 761 1688 1303 2380 449 574 1039
1163 1552 1552 30 23 78 59 105 80 138 106 461 328 636 436 388 239 909 498
1384 689 342 137 920 313 1325 403 1017 224 2134 253 3240 84 593 -91 1376
-313 1905 -541 726 -313 1180 -565 1755 -977 417 -298 740 -579 1169 -1017
l241 -246 68 58 c206 177 428 370 437 380 9 10 265 234 371 324 89 76 472 408
524 455 31 28 152 133 270 235 118 102 255 221 304 265 116 102 489 428 700
610 336 290 566 496 566 508 0 42 -758 810 -1075 1090 -261 230 -571 485 -780
641 -88 66 -185 138 -215 161 -192 145 -567 397 -790 533 -63 38 -145 88 -182
111 -384 235 -1089 597 -1528 784 -1102 468 -2153 761 -3325 926 -553 78 -935
108 -1560 121 -424 9 -519 9 -670 3z"/>
<path d="M46925 17974 c-22 -2 -130 -11 -240 -20 -780 -60 -1559 -245 -2310
-546 -1495 -601 -2788 -1625 -3764 -2983 -666 -926 -1194 -2075 -1460 -3176
-166 -687 -244 -1312 -258 -2079 -24 -1344 213 -2610 710 -3791 566 -1344
1526 -2606 2671 -3513 1557 -1234 3296 -1827 5251 -1793 438 8 668 25 1045 78
1171 164 2312 605 3355 1298 1769 1174 3117 3087 3674 5211 370 1413 387 3072
46 4535 -137 587 -343 1187 -587 1705 -574 1222 -1359 2266 -2318 3086 -714
610 -1536 1113 -2350 1437 -726 290 -1463 462 -2285 533 -169 15 -1072 28
-1180 18z m795 -4694 c802 -72 1543 -434 2170 -1060 241 -240 403 -442 582
-725 418 -663 642 -1321 709 -2085 15 -175 15 -627 0 -800 -69 -776 -292
-1450 -689 -2077 -327 -516 -804 -992 -1287 -1283 -408 -246 -839 -393 -1350
-462 -216 -30 -700 -32 -900 -4 -404 55 -735 153 -1080 320 -361 175 -689 406
-994 702 -768 743 -1188 1654 -1282 2784 -16 186 -16 655 0 830 17 196 48 411
81 573 221 1084 818 2017 1700 2654 497 360 1078 580 1666 632 134 12 543 12
674 1z"/>
<path d="M36605 17539 c-219 -18 -493 -50 -640 -75 -1217 -204 -2335 -743
-3215 -1549 l-95 -87 -6 159 c-4 87 -7 293 -8 459 0 165 -4 376 -8 467 l-6
167 -2344 0 -2344 0 6 -6617 c3 -3640 8 -7465 11 -8501 l6 -1882 2344 0 2344
0 0 4843 c0 5152 -2 4951 45 5242 135 836 648 1625 1366 2097 420 277 834 432
1349 505 180 26 695 25 860 0 272 -42 565 -123 800 -221 13 -5 188 435 941
2361 509 1303 923 2371 920 2375 -10 12 -389 106 -575 143 -199 40 -456 78
-676 101 -183 19 -902 28 -1075 13z"/>
<path d="M528 15110 c-190 -3 -349 -8 -352 -11 -7 -6 -53 -290 -61 -379 -4
-36 -17 -159 -31 -275 -97 -854 -99 -1960 -4 -2815 11 -96 39 -309 62 -472
l42 -298 3968 0 c2182 0 3968 -3 3968 -7 0 -5 -1251 -1259 -2780 -2788 l-2781
-2781 63 -84 c84 -112 288 -368 358 -450 31 -36 136 -158 233 -272 190 -221
766 -813 1001 -1027 187 -171 508 -443 724 -614 162 -129 277 -214 571 -425
l113 -82 2759 2751 2759 2751 0 -3820 c0 -2499 3 -3823 10 -3827 24 -15 402
-60 815 -97 231 -20 307 -22 1000 -23 535 0 793 4 900 13 499 43 800 77 1080
122 66 10 183 28 260 40 77 12 155 26 173 32 l32 10 0 7419 0 7419 -7267 -2
c-3998 -1 -7424 -5 -7615 -8z"/>
<path d="M17182 12958 l3 -2153 2078 -3 c1377 -1 2077 -5 2077 -12 0 -23 -85
-316 -131 -455 -133 -394 -273 -741 -438 -1079 -122 -252 -158 -318 -319 -596
-294 -506 -688 -1043 -1068 -1455 -603 -653 -1225 -1162 -1966 -1608 -327
-197 -728 -398 -1128 -564 -113 -47 -211 -90 -218 -96 -10 -8 -12 -452 -10
-2253 2 -1233 7 -2246 11 -2250 17 -17 596 144 987 275 324 108 638 226 904
338 111 47 241 101 290 120 144 59 885 432 1091 551 444 255 986 603 1250 802
55 41 152 113 215 160 149 109 414 321 560 446 63 55 167 143 231 196 306 255
1139 1111 1327 1363 4 6 57 69 117 142 61 73 140 172 177 220 38 48 98 126
134 173 66 86 171 228 189 259 6 9 12 18 15 21 3 3 30 41 59 85 30 44 61 89
71 100 24 28 311 474 402 625 340 565 668 1219 923 1845 266 652 502 1426 650
2130 156 741 215 1198 267 2045 24 395 12 1304 -23 1765 -15 197 -56 579 -84
775 -13 96 -26 189 -27 205 l-3 30 -4308 3 -4307 2 2 -2152z"/>
</g>
</svg>
