<?xml version="1.0" encoding="UTF-8"?>
<svg version="1.1" xmlns="http://www.w3.org/2000/svg" width="3200" height="3200">
<path d="M0 0 C1056 0 2112 0 3200 0 C3200 1056 3200 2112 3200 3200 C2144 3200 1088 3200 0 3200 C0 2144 0 1088 0 0 Z " fill="#4C43AD" transform="translate(0,0)"/>
<path d="M0 0 C464.97 0 929.94 0 1409 0 C1409 453.09 1409 906.18 1409 1373 C1402.72561674 1374.88231498 1397.17206686 1376.48304287 1390.8125 1377.375 C1389.15346217 1377.62116116 1387.4946222 1377.86865799 1385.8359375 1378.1171875 C1384.9190918 1378.25350586 1384.00224609 1378.38982422 1383.05761719 1378.53027344 C1379.62969566 1379.05688802 1376.20969329 1379.62326773 1372.7890625 1380.1953125 C1347.2861889 1384.44874073 1321.70994657 1387.18458166 1295.97680664 1389.60644531 C1293.16030319 1389.88517351 1290.34915541 1390.17943851 1287.53686523 1390.49511719 C1276.01299074 1391.78290071 1264.52263356 1392.63560799 1252.9375 1393.125 C1251.96466064 1393.16669312 1250.99182129 1393.20838623 1249.98950195 1393.25134277 C1190.42591989 1395.6921645 1129.10552872 1396.7364882 1069.88037109 1389.33935547 C1065.32411912 1388.80255345 1060.75967969 1388.44100279 1056.1875 1388.0625 C1042.08755773 1386.72339934 1028.04693484 1384.81250772 1014 1383 C1013.505 1032.54 1013.505 1032.54 1013 675 C845.03 842.97 677.06 1010.94 504 1184 C500.89987286 1182.96662429 500.18217686 1182.24830343 498 1180 C496.77081995 1179.13625186 495.51784818 1178.305919 494.25 1177.5 C483.82299713 1170.6615111 473.93931582 1163.00977512 464.09765625 1155.36328125 C460.12258981 1152.3306013 456.05285484 1149.45048953 451.94921875 1146.59375 C450.98435547 1145.80484375 450.98435547 1145.80484375 450 1145 C450 1144.34 450 1143.68 450 1143 C449.44441406 1142.91878906 448.88882812 1142.83757812 448.31640625 1142.75390625 C445.22922764 1141.74914154 443.39779925 1140.04995134 440.9375 1137.9375 C436.13620874 1133.88681492 431.18283469 1130.20350094 426.01953125 1126.62890625 C425.35308594 1126.09136719 424.68664062 1125.55382813 424 1125 C424 1124.34 424 1123.68 424 1123 C423.40614502 1122.72454346 422.81229004 1122.44908691 422.20043945 1122.1652832 C420.10869009 1121.05755884 418.55921318 1119.91632957 416.79296875 1118.35546875 C416.20580078 1117.84306641 415.61863281 1117.33066406 415.01367188 1116.80273438 C414.41103516 1116.26970703 413.80839844 1115.73667969 413.1875 1115.1875 C409.58450899 1112.00885254 406.0171001 1108.95869879 402.05078125 1106.23828125 C401.04402344 1105.49964844 400.03726562 1104.76101563 399 1104 C399 1103.34 399 1102.68 399 1102 C398.46503906 1101.78472656 397.93007813 1101.56945313 397.37890625 1101.34765625 C394.13078937 1099.50759004 391.61525057 1097.00202225 388.9375 1094.4375 C383.83275196 1089.61594463 378.59731839 1085.14705199 373.046875 1080.83984375 C371 1079 371 1079 370 1076 C367.99983534 1074.79117904 367.99983534 1074.79117904 366 1074 C366 1073.34 366 1072.68 366 1072 C365.42378906 1071.74089844 364.84757812 1071.48179688 364.25390625 1071.21484375 C361.82190213 1069.90400618 359.99287579 1068.40402166 357.9375 1066.5625 C357.26589844 1065.96566406 356.59429688 1065.36882812 355.90234375 1064.75390625 C355.27457031 1064.17511719 354.64679688 1063.59632812 354 1063 C353.42378906 1062.47277344 352.84757812 1061.94554688 352.25390625 1061.40234375 C351 1060 351 1060 351 1058 C350.01 1057.67 349.02 1057.34 348 1057 C347.443125 1056.29875 346.88625 1055.5975 346.3125 1054.875 C344.30918056 1052.38438665 342.41720309 1050.55394994 340 1048.5 C336.93204609 1045.88740103 334.46666369 1043.197527 332 1040 C331.01 1039.34 330.02 1038.68 329 1038 C329 1037.34 329 1036.68 329 1036 C328.443125 1035.79375 327.88625 1035.5875 327.3125 1035.375 C324.14159851 1033.48959912 322.31270521 1030.84640641 320 1028 C319.01 1027.34 318.02 1026.68 317 1026 C317 1025.34 317 1024.68 317 1024 C316.01 1023.67 315.02 1023.34 314 1023 C314 1022.34 314 1021.68 314 1021 C313.01 1020.67 312.02 1020.34 311 1020 C311 1019.01 311 1018.02 311 1017 C310.34 1017 309.68 1017 309 1017 C309 1016.34 309 1015.68 309 1015 C308.40469482 1014.73372803 307.80938965 1014.46745605 307.19604492 1014.19311523 C304.94780867 1012.97164435 303.59466426 1011.77655914 301.86328125 1009.91015625 C301.29077637 1009.29640137 300.71827148 1008.68264648 300.12841797 1008.05029297 C299.52916504 1007.39432129 298.92991211 1006.73834961 298.3125 1006.0625 C297.68746582 1005.38590332 297.06243164 1004.70930664 296.41845703 1004.01220703 C292.18270347 999.39148439 288.17466014 994.63124058 284.265625 989.73046875 C281.66670161 986.59831797 278.91551055 983.64801786 276.125 980.6875 C271.41927471 975.68276119 267.12312385 970.46960704 262.93847656 965.0246582 C260.21800375 961.49996163 257.39833702 958.14984512 254.375 954.875 C242.21211048 941.63633144 242.21211048 941.63633144 240 935 C239.34 935 238.68 935 238 935 C237.896875 934.360625 237.79375 933.72125 237.6875 933.0625 C237.460625 932.381875 237.23375 931.70125 237 931 C236.01 930.67 235.02 930.34 234 930 C232.16796875 927.77734375 232.16796875 927.77734375 230.1875 924.9375 C229.14142578 923.45636719 229.14142578 923.45636719 228.07421875 921.9453125 C227.04748047 920.48738281 227.04748047 920.48738281 226 919 C224.84017972 917.43241132 223.67446139 915.86914954 222.5 914.3125 C222.0153125 913.66925781 221.530625 913.02601563 221.03125 912.36328125 C220.6909375 911.91339844 220.350625 911.46351563 220 911 C221.40699507 907.81555201 223.07499936 905.67540366 225.53135598 903.22024703 C226.26972494 902.47738345 227.00809391 901.73451988 227.7688377 900.96914528 C228.58504376 900.15819327 229.40124983 899.34724125 230.24218941 898.51171494 C231.54279748 897.20764563 231.54279748 897.20764563 232.86968046 895.87723149 C235.28779856 893.45471744 237.71034443 891.03678853 240.1348208 888.6206477 C242.76133561 886.00097914 245.3820619 883.37553086 248.00350952 880.75079346 C252.60701154 876.14312816 257.21423987 871.53921499 261.82387948 866.93769026 C268.76732025 860.00643286 275.70494055 853.06937068 282.64145578 846.13118336 C294.2649117 834.50524075 305.89290526 822.88384706 317.52365112 811.26519775 C333.25001248 795.5551638 348.97013914 779.83891447 364.68920898 764.12158203 C402.49569449 726.32560756 440.31088391 688.53834022 478.125 650.75 C562.56375 566.3525 647.0025 481.955 734 395 C491.78 394.67 249.56 394.34 0 394 C-1.65 384.1 -3.3 374.2 -5 364 C-5.66 360.37 -6.32 356.74 -7 353 C-7.25614934 351.03891346 -7.48708907 349.07398891 -7.67016602 347.10473633 C-7.76689102 346.0903096 -7.86361603 345.07588287 -7.96327209 344.03071594 C-8.05918137 342.97514999 -8.15509064 341.91958405 -8.25390625 340.83203125 C-8.35968491 339.71237473 -8.46546356 338.5927182 -8.57444763 337.43913269 C-8.90826762 333.8973238 -9.23567091 330.35496019 -9.5625 326.8125 C-9.89414316 323.25945604 -10.22714096 319.70654389 -10.56126404 316.1537323 C-10.76778201 313.95346327 -10.97267494 311.7530409 -11.17567444 309.55244446 C-11.56887573 305.32947142 -11.96631321 301.1150259 -12.52294922 296.91015625 C-19.55094603 239.3050401 -17.78625359 178.83940831 -14.6875 121 C-14.62882751 119.89390381 -14.57015503 118.78780762 -14.50970459 117.64819336 C-13.66524623 102.3466888 -12.11797727 87.1633051 -10.33473206 71.94519043 C-9.84010222 67.59311528 -9.41568668 63.23519829 -9 58.875 C-7.13589944 39.85998183 -4.64912583 20.91964332 -2 2 C-1.34 2 -0.68 2 0 2 C0 1.34 0 0.68 0 0 Z " fill="#FEFEFE" transform="translate(415,1405)"/>
<path d="M0 0 C1.35470588 0.0000558 2.70941187 -0.00037394 4.06411743 -0.001297 C8.54356108 -0.00434225 13.02285765 0.00424138 17.50227356 0.01961517 C18.62945297 0.02081863 19.75663239 0.02202209 20.91796875 0.02326202 C26.59495452 0.0568136 32.14711614 0.31892412 37.7883606 0.95072174 C41.41110174 1.32193726 45.03157984 1.4144937 48.67024231 1.51180267 C71.15176286 2.24524195 93.52136276 3.73114732 115.91428375 5.80993271 C117.9337663 5.99628546 119.95357629 6.17858296 121.973526 6.35979462 C144.03646723 8.36078982 166.61283023 10.55857335 188.09992981 16.18758392 C189.99075965 16.54821902 191.88662356 16.88388877 193.78742981 17.18758392 C194.80868958 17.35145599 195.82994934 17.51532806 196.88215637 17.68416595 C197.94402161 17.85029388 199.00588684 18.01642181 200.09992981 18.18758392 C201.75073547 18.45031097 201.75073547 18.45031097 203.43489075 18.71834564 C210.93719828 19.89627599 218.43842493 20.90128835 225.99055481 21.69539642 C229.00249301 22.17216051 231.29246963 23.0412404 234.09992981 24.18758392 C236.52718359 24.71621046 238.9666748 25.19000992 241.41242981 25.62508392 C242.10594543 25.75141205 242.79946106 25.87774017 243.51399231 26.00789642 C246.43306573 26.53911519 249.35420744 27.05763858 252.2771759 27.56697845 C266.2109849 29.99755191 266.2109849 29.99755191 271.87336731 32.36727142 C282.17945251 36.16425018 293.2444708 37.89849817 304.09992981 39.18758392 C304.09992981 39.84758392 304.09992981 40.50758392 304.09992981 41.18758392 C305.31680481 41.27008392 306.53367981 41.35258392 307.78742981 41.43758392 C315.45410273 42.28406201 322.75513465 44.88716717 329.92024231 47.65633392 C334.34440111 49.33125044 338.85160609 50.56968967 343.41242981 51.81258392 C353.28190403 54.56092041 362.98467713 57.7365772 372.68513489 61.02791595 C378.39311316 62.9633872 384.10024975 64.83272631 389.89289856 66.49983978 C393.1493961 67.51461341 396.27878844 68.80225065 399.43196106 70.09774017 C402.30688546 71.27212364 405.19952724 72.39014317 408.09992981 73.50008392 C411.88518434 74.94909184 415.6665483 76.40679829 419.43977356 77.88680267 C426.4830087 80.64681627 433.52402892 83.36970564 440.66242981 85.87508392 C446.96819925 88.10235111 452.96560152 90.71087355 459.01008606 93.55867767 C466.06614442 96.85950692 473.17576339 99.87852965 480.42024231 102.73055267 C485.67663577 104.81190592 490.88930116 106.99465641 496.09992981 109.18758392 C496.09992981 109.84758392 496.09992981 110.50758392 496.09992981 111.18758392 C496.61168762 111.30359955 497.12344543 111.41961517 497.65071106 111.53914642 C500.91695245 112.40389295 504.09048327 113.46932759 507.28742981 114.56258392 C508.2493927 114.87582611 508.2493927 114.87582611 509.23078918 115.19539642 C511.08039856 115.83602142 511.08039856 115.83602142 514.09992981 117.18758392 C514.42992981 118.17758392 514.75992981 119.16758392 515.09992981 120.18758392 C515.98680481 120.29070892 516.87367981 120.39383392 517.78742981 120.50008392 C521.26568392 121.22198572 523.13479381 122.28142507 526.09992981 124.18758392 C530.33531389 126.43493058 534.60666091 128.50260809 539.09992981 130.18758392 C539.09992981 130.84758392 539.09992981 131.50758392 539.09992981 132.18758392 C539.67742981 132.33195892 540.25492981 132.47633392 540.84992981 132.62508392 C542.93326314 133.14591726 545.01659648 133.66675059 547.09992981 134.18758392 C547.09992981 134.84758392 547.09992981 135.50758392 547.09992981 136.18758392 C548.00742981 136.37320892 548.91492981 136.55883392 549.84992981 136.75008392 C554.74827906 138.1168331 558.84468205 140.87026862 563.13508606 143.53133392 C566.06954928 145.29317001 566.06954928 145.29317001 569.40852356 146.28133392 C572.09992981 147.18758392 572.09992981 147.18758392 573.09992981 149.18758392 C577.78493381 152.26489181 582.69804158 154.66397442 588.09992981 156.18758392 C588.09992981 156.84758392 588.09992981 157.50758392 588.09992981 158.18758392 C588.82438293 158.45699799 589.54883606 158.72641205 590.29524231 159.00399017 C593.05723583 160.16956683 595.43903777 161.53306224 597.97492981 163.12508392 C601.9271739 165.54494595 605.7888023 167.50062098 610.09992981 169.18758392 C610.09992981 169.84758392 610.09992981 170.50758392 610.09992981 171.18758392 C610.83243958 171.46287933 611.56494934 171.73817474 612.31965637 172.02181244 C614.929753 173.11622861 617.18576632 174.34641489 619.58430481 175.83992767 C620.42767395 176.36296478 621.27104309 176.88600189 622.13996887 177.42488861 C623.03425598 177.98595306 623.92854309 178.54701752 624.84992981 179.12508392 C625.78804504 179.71064056 626.72616028 180.2961972 627.69270325 180.89949799 C630.49918661 182.65581338 633.30072638 184.41969286 636.09992981 186.18758392 C636.83856262 186.65374115 637.57719543 187.11989838 638.33821106 187.60018158 C647.66994058 193.51280466 656.8339225 199.67300691 665.97492981 205.87508392 C667.5261554 206.92647552 667.5261554 206.92647552 669.10871887 207.99910736 C675.0341166 212.0361289 680.87149966 216.16701927 686.63166809 220.4368515 C689.05494347 222.15567522 691.55314826 223.66110365 694.09992981 225.18758392 C694.55367981 225.66195892 695.00742981 226.13633392 695.47492981 226.62508392 C697.19094102 228.41018482 697.19094102 228.41018482 700.16242981 229.87508392 C704.23728593 232.12944065 707.69936656 234.97532591 711.29914856 237.91414642 C714.34341682 240.3852261 717.42991175 242.79700944 720.53742981 245.18758392 C721.08850403 245.61176605 721.63957825 246.03594818 722.20735168 246.47298431 C725.67114257 249.12628477 729.17957283 251.70612592 732.72492981 254.25008392 C738.3796882 258.33362146 743.74555211 262.72067214 749.09992981 267.18758392 C750.11571106 268.02805267 751.13149231 268.86852142 752.17805481 269.73445892 C757.12713978 273.83346577 762.03808499 277.96765867 766.85383606 282.22274017 C769.24760286 284.31676574 771.66554891 286.38045882 774.08625793 288.44319916 C780.0280276 293.5087961 785.86945597 298.65530523 791.62727356 303.92977142 C797.75301913 309.61270419 797.75301913 309.61270419 804.32258606 314.75399017 C804.9091095 315.22707611 805.49563293 315.70016205 806.09992981 316.18758392 C806.09992981 316.84758392 806.09992981 317.50758392 806.09992981 318.18758392 C806.64778137 318.41832611 807.19563293 318.6490683 807.76008606 318.88680267 C810.76206895 320.55568465 813.01724961 322.66865508 815.53742981 325.00008392 C816.46426575 325.85215424 817.39110168 326.70422455 818.34602356 327.58211517 C820.97895149 330.07312642 823.54538367 332.61655684 826.09992981 335.18758392 C826.83856262 335.90301361 827.57719543 336.6184433 828.33821106 337.35555267 C829.02270325 338.02199799 829.70719543 338.6884433 830.41242981 339.37508392 C831.10981262 340.04926361 831.80719543 340.7234433 832.52571106 341.41805267 C834.09992981 343.18758392 834.09992981 343.18758392 834.09992981 345.18758392 C834.681297 345.44024017 835.26266418 345.69289642 835.86164856 345.95320892 C838.36064599 347.33136457 839.94827685 348.87342317 841.91242981 350.93758392 C844.53627325 353.64511468 847.18957562 356.16582165 850.09992981 358.56258392 C851.08992981 359.42883392 852.07992981 360.29508392 853.09992981 361.18758392 C853.09992981 361.84758392 853.09992981 362.50758392 853.09992981 363.18758392 C853.64778137 363.38867767 854.19563293 363.58977142 854.76008606 363.79695892 C858.03783149 365.74500129 860.16285898 368.51754772 862.53742981 371.43758392 C863.00213684 371.99832611 863.46684387 372.5590683 863.94563293 373.13680267 C865.79482902 375.37028079 867.63309441 377.61233412 869.46028137 379.86385345 C871.93170668 382.88253612 874.45155989 385.34388798 877.49836731 387.78133392 C880.70395294 390.59599448 883.34651566 393.94138872 886.09992981 397.18758392 C886.97971497 398.16018158 886.97971497 398.16018158 887.87727356 399.15242767 C888.42512512 399.76215424 888.97297668 400.3718808 889.53742981 401.00008392 C890.03114075 401.54277924 890.52485168 402.08547455 891.03352356 402.64461517 C892.09992981 404.18758392 892.09992981 404.18758392 892.09992981 407.18758392 C890.29914856 408.87899017 890.29914856 408.87899017 887.78742981 410.75008392 C882.85755074 414.54337136 878.27393682 418.59530111 873.69758606 422.80477142 C870.21893997 425.99570994 866.6631859 429.0920052 863.09992981 432.18758392 C862.50180481 432.71481049 861.90367981 433.24203705 861.28742981 433.78524017 C857.14675272 437.43421186 852.9474621 441.00888902 848.72492981 444.56258392 C844.74420727 447.91326816 840.82238846 451.30821076 836.97492981 454.81258392 C832.7502692 458.65504583 828.36498512 462.25236839 823.92024231 465.83602142 C819.90941745 469.1802272 816.11401207 472.73528544 812.31477356 476.31649017 C810.09992981 478.18758392 810.09992981 478.18758392 808.09992981 478.18758392 C808.09992981 478.84758392 808.09992981 479.50758392 808.09992981 480.18758392 C806.56797709 481.55970693 804.970719 482.85912852 803.34992981 484.12508392 C799.1140903 487.50832497 795.06131199 490.98852348 791.09992981 494.68758392 C786.51314726 498.9576038 781.76542774 502.94522927 776.88117981 506.87508392 C773.85973645 509.38729526 770.97552903 512.0116085 768.09992981 514.68758392 C763.50192695 518.96598305 758.75077283 522.9742622 753.84992981 526.90633392 C749.85614671 530.21935854 746.08989918 533.75801452 742.31477356 537.31649017 C740.09992981 539.18758392 740.09992981 539.18758392 738.09992981 539.18758392 C738.09992981 539.84758392 738.09992981 540.50758392 738.09992981 541.18758392 C736.5475264 542.58084346 734.92962996 543.90138521 733.28742981 545.18758392 C728.22502834 549.23490232 723.41451513 553.47404923 718.63899231 557.85945892 C714.12736862 561.9962708 709.5000749 565.99369215 704.84602356 569.96883392 C704.25635803 570.47269623 703.6666925 570.97655853 703.05915833 571.49568939 C701.84015018 572.53703031 700.62058951 573.57772479 699.40046692 574.6177597 C694.83229327 578.52417417 690.38411595 582.5381121 685.99055481 586.64070892 C684.09992981 588.18758392 684.09992981 588.18758392 682.09992981 588.18758392 C682.09992981 588.84758392 682.09992981 589.50758392 682.09992981 590.18758392 C680.29914856 591.78133392 680.29914856 591.78133392 677.78742981 593.68758392 C673.92716364 596.69424194 670.25691571 599.80510487 666.66242981 603.12508392 C662.05717155 607.3700446 657.30040423 611.36278537 652.41242981 615.27742767 C650.13377494 617.0856851 650.13377494 617.0856851 648.41242981 618.94149017 C647.09992981 620.18758392 647.09992981 620.18758392 645.09992981 620.18758392 C645.09992981 620.84758392 645.09992981 621.50758392 645.09992981 622.18758392 C643.40089958 623.70499368 641.63920258 625.15271192 639.84992981 626.56258392 C637.04679669 628.77987706 634.36291784 630.91815912 631.86555481 633.47664642 C630.09992981 635.18758392 630.09992981 635.18758392 628.09992981 635.18758392 C628.09992981 635.84758392 628.09992981 636.50758392 628.09992981 637.18758392 C626.5475264 638.58084346 624.92962996 639.90138521 623.28742981 641.18758392 C619.26045687 644.40503734 615.38935968 647.68796615 611.59992981 651.18758392 C606.98161187 655.44042347 602.20828268 659.44342666 597.31477356 663.37508392 C595.07239414 665.14884749 595.07239414 665.14884749 593.09992981 667.18758392 C589.72281223 666.86431605 588.08084051 665.5279653 585.78742981 663.12508392 C585.18543762 662.49602142 584.58344543 661.86695892 583.96321106 661.21883392 C579.98800457 656.88527549 576.12638939 652.48505165 572.47492981 647.87508392 C570.31346698 645.13685891 570.31346698 645.13685891 567.68977356 643.81649017 C564.79814348 641.99777261 563.30721574 640.17598842 561.28742981 637.43758392 C558.11686518 633.31043528 554.83612292 629.98639838 550.76399231 626.75789642 C548.94743417 625.04367959 548.07762076 623.46886281 547.09992981 621.18758392 C545.77992981 621.18758392 544.45992981 621.18758392 543.09992981 621.18758392 C541.71321106 619.68367767 541.71321106 619.68367767 540.41242981 617.62508392 C537.54401671 613.49398516 534.33569282 610.81567602 530.24836731 607.92586517 C527.78169773 605.93010524 526.07941905 603.66194547 524.09992981 601.18758392 C522.4300576 599.72577886 520.71878015 598.3102941 518.97492981 596.93758392 C515.04904521 593.78313829 511.18721968 590.58457113 507.41242981 587.25008392 C506.58356262 586.51918549 505.75469543 585.78828705 504.90071106 585.03524017 C503.09992981 583.18758392 503.09992981 583.18758392 503.09992981 581.18758392 C502.25688293 581.05609955 502.25688293 581.05609955 501.39680481 580.92195892 C498.44702531 579.97883214 496.7092839 578.43627242 494.34992981 576.43758392 C491.25902482 573.88383179 488.23481316 571.54758106 484.78742981 569.50008392 C481.38059833 567.45871596 478.84521815 565.07736112 476.09992981 562.18758392 C472.5789426 559.10672011 469.12745506 556.54515968 465.09992981 554.18758392 C463.9281018 553.34051195 462.76177232 552.48580094 461.59992981 551.62508392 C458.88340576 549.65159161 456.30862975 548.25715057 453.09992981 547.18758392 C453.09992981 546.52758392 453.09992981 545.86758392 453.09992981 545.18758392 C452.43992981 545.18758392 451.77992981 545.18758392 451.09992981 545.18758392 C450.08322872 544.20456872 449.08739566 543.1999629 448.09992981 542.18758392 C441.46645275 537.04347034 434.74013399 532.64531919 427.33430481 528.72274017 C425.85703918 527.93190033 425.85703918 527.93190033 424.34992981 527.12508392 C423.42696106 526.63910736 422.50399231 526.1531308 421.55305481 525.65242767 C419.33022251 524.32509947 417.84145137 523.06946692 416.09992981 521.18758392 C415.01711731 520.41414642 415.01711731 520.41414642 413.91242981 519.62508392 C413.01524231 518.91352142 413.01524231 518.91352142 412.09992981 518.18758392 C412.09992981 517.52758392 412.09992981 516.86758392 412.09992981 516.18758392 C410.92430481 516.14633392 409.74867981 516.10508392 408.53742981 516.06258392 C404.08009216 515.52801786 401.95087512 513.72406266 398.77571106 510.68758392 C396.47171483 508.62526562 393.91443305 507.42321949 391.09992981 506.18758392 C391.09992981 505.52758392 391.09992981 504.86758392 391.09992981 504.18758392 C390.21305481 504.06383392 389.32617981 503.94008392 388.41242981 503.81258392 C385.37150921 503.23882532 382.87655842 502.5362321 380.09992981 501.18758392 C379.76992981 500.52758392 379.43992981 499.86758392 379.09992981 499.18758392 C377.1210402 498.46064488 375.12038423 497.78942141 373.09992981 497.18758392 C373.09992981 496.52758392 373.09992981 495.86758392 373.09992981 495.18758392 C371.77992981 494.85758392 370.45992981 494.52758392 369.09992981 494.18758392 C369.09992981 493.52758392 369.09992981 492.86758392 369.09992981 492.18758392 C368.26075012 492.10121674 367.42157043 492.01484955 366.55696106 491.92586517 C362.53087157 491.06605623 359.32804435 489.3840716 355.78742981 487.37508392 C354.44753595 486.63712907 353.10639618 485.90143168 351.76399231 485.16805267 C351.12622864 484.81920013 350.48846497 484.4703476 349.83137512 484.11092377 C347.14881347 482.68037552 344.38500646 481.49376047 341.58821106 480.30867767 C338.82309014 479.06285396 336.13653392 477.69592728 333.43659973 476.31575775 C326.80417147 472.92854009 320.19405909 469.9196013 313.19758606 467.33602142 C306.60645798 464.89240017 300.0742684 462.2760516 293.84992981 459.00008392 C290.71498271 457.3745558 287.67903478 456.57038385 284.22102356 455.80867767 C280.83795735 454.81805608 277.85376077 453.10745762 274.73664856 451.48445892 C267.97062161 448.15657604 260.71857778 446.01895205 253.50227356 443.89852142 C248.1830866 442.32438805 243.03472151 440.67301323 238.03742981 438.25008392 C234.06393347 436.43786575 230.10863745 435.36458057 225.86555481 434.34383392 C224.43161361 433.99409293 222.99794703 433.64322444 221.56452942 433.29134369 C220.8274173 433.11056274 220.09030518 432.9297818 219.33085632 432.74352264 C215.72912284 431.84598385 212.14293923 430.8919298 208.55696106 429.93367767 C207.84644089 429.74431137 207.13592072 429.55494507 206.40386963 429.35984039 C203.51143405 428.58826967 200.61954318 427.81468546 197.72810364 427.03939056 C179.22689323 422.06968443 179.22689323 422.06968443 160.36555481 418.81258392 C157.72258846 418.30675304 155.55420931 417.66783599 153.04914856 416.75789642 C147.06535988 414.68653656 140.91325786 413.93414389 134.66242981 413.06258392 C132.32998092 412.72955852 129.99792488 412.39376602 127.66633606 412.05477142 C126.64483459 411.91152435 125.62333313 411.76827728 124.57087708 411.62068939 C122.09992981 411.18758392 122.09992981 411.18758392 120.09992981 410.18758392 C118.73785163 410.04910984 117.37021831 409.96254059 116.00227356 409.90633392 C115.20112122 409.86895111 114.39996887 409.8315683 113.57453918 409.79305267 C111.87923342 409.72257807 110.18392087 409.65226631 108.48860168 409.58211517 C102.20058096 409.28823508 102.20058096 409.28823508 101.09992981 408.18758392 C99.62690395 407.97332562 98.14530834 407.81713337 96.66242981 407.68758392 C95.76782043 407.60508392 94.87321106 407.52258392 93.95149231 407.43758392 C93.01047668 407.35508392 92.06946106 407.27258392 91.09992981 407.18758392 C89.24540111 407.02499511 87.39120615 406.85853736 85.53742981 406.68758392 C84.71114075 406.61539642 83.88485168 406.54320892 83.03352356 406.46883392 C81.09992981 406.18758392 81.09992981 406.18758392 80.09992981 405.18758392 C53.11051272 400.26564614 25.22567131 400.792861 -2.09476852 400.81107712 C-4.8720493 400.81256887 -7.64931029 400.81045196 -10.42658997 400.80791473 C-31.01000482 400.80086563 -51.40114398 401.13751225 -71.90007019 403.18758392 C-73.77550788 403.36617594 -75.65099528 403.54424673 -77.52653503 403.72176361 C-84.00151184 404.33876307 -90.39595179 405.01296439 -96.77507019 406.31258392 C-102.79618762 407.52628948 -108.78340903 407.36262351 -114.90007019 407.18758392 C-114.90007019 407.84758392 -114.90007019 408.50758392 -114.90007019 409.18758392 C-115.94678894 409.20176361 -116.99350769 409.2159433 -118.07194519 409.23055267 C-137.55826506 409.75244869 -156.69087476 413.81507398 -175.63053894 418.21492767 C-178.77019159 418.9423089 -181.91778867 419.61118832 -185.07585144 420.25399017 C-185.94330994 420.4311557 -186.81076843 420.60832123 -187.70451355 420.79085541 C-189.37241404 421.1293779 -191.04115925 421.4637746 -192.71086121 421.79329681 C-196.44649278 422.55613691 -199.51278331 423.40591328 -202.90007019 425.18758392 C-205.1175701 425.79444836 -207.34942589 426.34944111 -209.58757019 426.87508392 C-227.57553496 431.26157881 -245.22180172 436.50459922 -262.77507019 442.37508392 C-263.54629211 442.63297699 -264.31751404 442.89087006 -265.11210632 443.15657806 C-279.3222435 447.92031985 -293.3123855 453.08877951 -307.2396698 458.632164 C-309.08264702 459.36502854 -310.92688891 460.09471024 -312.77116394 460.82430267 C-313.85325134 461.25444672 -314.93533875 461.68459076 -316.05021667 462.12776947 C-318.3364281 462.97797454 -320.52190496 463.66943619 -322.90007019 464.18758392 C-322.90007019 464.84758392 -322.90007019 465.50758392 -322.90007019 466.18758392 C-323.80885925 466.42541595 -323.80885925 466.42541595 -324.73600769 466.66805267 C-330.49690962 468.27224229 -335.59895931 470.37258932 -340.86882019 473.19930267 C-342.90007019 474.18758392 -342.90007019 474.18758392 -344.90007019 474.18758392 C-344.90007019 474.84758392 -344.90007019 475.50758392 -344.90007019 476.18758392 C-345.72507019 476.44410736 -346.55007019 476.7006308 -347.40007019 476.96492767 C-355.03780551 479.49663235 -361.82393586 482.61424187 -368.77262878 486.66439056 C-377.02612927 491.47210951 -385.58566343 495.67122171 -394.21647644 499.75789642 C-397.05688104 501.08243162 -397.05688104 501.08243162 -399.21257019 503.68758392 C-402.30674407 506.56588521 -404.70472725 507.27655947 -408.68132019 508.42977142 C-411.84749517 509.51117626 -414.17976996 511.26346913 -416.90007019 513.18758392 C-417.56007019 513.18758392 -418.22007019 513.18758392 -418.90007019 513.18758392 C-418.90007019 513.84758392 -418.90007019 514.50758392 -418.90007019 515.18758392 C-419.95194519 515.60008392 -421.00382019 516.01258392 -422.08757019 516.43758392 C-424.47758722 517.45916178 -426.10018803 518.34878996 -428.15007019 520.00008392 C-430.73737027 522.05816353 -433.17291083 523.46304056 -436.08757019 525.00008392 C-441.69363074 527.99397474 -446.74942936 531.48033802 -451.90007019 535.18758392 C-453.98096247 536.62861527 -456.06444974 538.06590424 -458.15007019 539.50008392 C-473.92676195 550.40650885 -489.44925995 561.6705456 -504.38444519 573.71077728 C-507.10561877 575.88289195 -509.69351698 577.80222841 -512.90007019 579.18758392 C-512.90007019 579.84758392 -512.90007019 580.50758392 -512.90007019 581.18758392 C-514.65309337 582.51988154 -516.41392037 583.84252813 -518.20085144 585.12899017 C-522.32020533 588.27066818 -526.18303737 591.7051606 -530.06266785 595.13631439 C-532.65424159 597.39918673 -534.60153528 599.08807229 -537.90007019 600.18758392 C-537.90007019 600.84758392 -537.90007019 601.50758392 -537.90007019 602.18758392 C-539.22819519 603.52742767 -539.22819519 603.52742767 -541.15007019 605.12508392 C-543.83283798 607.39437854 -546.46662134 609.69429386 -549.03288269 612.09383392 C-549.56881042 612.59407074 -550.10473816 613.09430756 -550.65690613 613.60970306 C-551.72851402 614.61324413 -552.79692849 615.62020702 -553.86198425 616.63069916 C-557.6793715 620.18758392 -557.6793715 620.18758392 -559.90007019 620.18758392 C-560.56007019 621.50758392 -561.22007019 622.82758392 -561.90007019 624.18758392 C-562.56007019 624.18758392 -563.22007019 624.18758392 -563.90007019 624.18758392 C-564.56007019 625.50758392 -565.22007019 626.82758392 -565.90007019 628.18758392 C-566.56007019 628.18758392 -567.22007019 628.18758392 -567.90007019 628.18758392 C-567.90007019 628.84758392 -567.90007019 629.50758392 -567.90007019 630.18758392 C-568.56007019 630.18758392 -569.22007019 630.18758392 -569.90007019 630.18758392 C-570.23007019 631.17758392 -570.56007019 632.16758392 -570.90007019 633.18758392 C-572.53678894 634.76570892 -572.53678894 634.76570892 -574.58757019 636.43758392 C-578.03115535 639.33711972 -580.89332748 642.36895841 -583.67350769 645.90242767 C-584.07827332 646.32652924 -584.48303894 646.7506308 -584.90007019 647.18758392 C-585.56007019 647.18758392 -586.22007019 647.18758392 -586.90007019 647.18758392 C-587.12694519 647.74445892 -587.35382019 648.30133392 -587.58757019 648.87508392 C-588.89203997 651.17343545 -590.37025785 652.74509905 -592.26725769 654.56258392 C-594.45604842 656.74090197 -596.51675145 659.02203201 -598.58757019 661.31258392 C-599.35456238 662.16078705 -600.12155457 663.00899017 -600.91178894 663.88289642 C-603.0112045 666.22048393 -603.0112045 666.22048393 -604.90007019 669.18758392 C-605.56007019 669.18758392 -606.22007019 669.18758392 -606.90007019 669.18758392 C-607.14499207 669.75348236 -607.38991394 670.3193808 -607.64225769 670.90242767 C-609.12386876 673.59417449 -610.91413141 675.51778455 -613.02507019 677.75008392 C-617.07147815 682.14778775 -620.58221495 686.73205401 -623.97819519 691.64461517 C-626.0777303 694.42265858 -628.43549546 696.73052314 -630.90007019 699.18758392 C-632.51683452 701.18177171 -634.09879903 703.20453519 -635.65007019 705.25008392 C-636.08198669 705.81807709 -636.5139032 706.38607025 -636.95890808 706.97127533 C-638.27671629 708.70699567 -639.58889011 710.44685344 -640.90007019 712.18758392 C-641.64643738 713.17371674 -642.39280457 714.15984955 -643.16178894 715.17586517 C-660.91466066 738.3589553 -660.91466066 738.3589553 -676.47819519 763.01180267 C-676.94741394 763.72981049 -677.41663269 764.4478183 -677.90007019 765.18758392 C-678.56007019 765.18758392 -679.22007019 765.18758392 -679.90007019 765.18758392 C-680.12436707 766.01258392 -680.34866394 766.83758392 -680.57975769 767.68758392 C-682.19525428 771.97008376 -684.47480292 775.41048027 -687.02507019 779.18758392 C-691.3521885 785.72373521 -695.36928595 792.34523769 -699.19694519 799.18367767 C-700.57572351 801.61551374 -702.00441614 803.9690443 -703.52507019 806.31258392 C-706.74848129 811.3748537 -709.26674971 816.80344571 -711.90007019 822.18758392 C-713.23694195 824.8362387 -714.57713877 827.48316568 -715.91960144 830.12899017 C-717.00652518 832.30289164 -717.00652518 832.30289164 -717.90007019 835.18758392 C-718.56007019 835.18758392 -719.22007019 835.18758392 -719.90007019 835.18758392 C-720.30612488 836.4927597 -720.30612488 836.4927597 -720.72038269 837.82430267 C-721.85461435 841.05798962 -723.20354834 843.95882273 -724.77507019 847.00008392 C-726.8747736 851.12882764 -728.85998063 855.26304178 -730.70085144 859.51180267 C-731.70902947 861.76132042 -732.75209408 863.98473518 -733.81803894 866.20711517 C-738.96766817 876.95168086 -738.96766817 876.95168086 -742.90007019 888.18758392 C-743.56007019 888.18758392 -744.22007019 888.18758392 -744.90007019 888.18758392 C-745.02253113 888.89785736 -745.14499207 889.6081308 -745.27116394 890.33992767 C-745.92458944 893.29860586 -746.8549241 895.93027981 -747.96257019 898.75008392 C-748.62579285 900.44584564 -748.62579285 900.44584564 -749.30241394 902.17586517 C-750.4932624 905.17717184 -751.69762286 908.17294829 -752.90397644 911.16805267 C-753.25387634 912.03808929 -753.60377625 912.90812592 -753.96427917 913.80452728 C-754.65489701 915.5187536 -755.34827845 917.23186996 -756.04484558 918.94368744 C-757.60262119 922.80175143 -759.09056717 926.65695734 -760.39225769 930.60945892 C-762.11519085 935.84074822 -764.01784798 941.01147285 -765.90007019 946.18758392 C-902.52007019 946.18758392 -1039.14007019 946.18758392 -1179.90007019 946.18758392 C-1179.26948156 941.14287485 -1178.63700339 936.60006561 -1177.48991394 931.71883392 C-1177.22243347 930.5715683 -1176.954953 929.42430267 -1176.67936707 928.24227142 C-1176.4015741 927.06922455 -1176.12378113 925.89617767 -1175.83757019 924.68758392 C-1175.55591003 923.48359955 -1175.27424988 922.27961517 -1174.98405457 921.03914642 C-1174.29305202 918.0877457 -1173.5982972 915.13728231 -1172.90007019 912.18758392 C-1172.24007019 912.18758392 -1171.58007019 912.18758392 -1170.90007019 912.18758392 C-1170.81757019 910.90883392 -1170.73507019 909.63008392 -1170.65007019 908.31258392 C-1169.8586994 900.1390229 -1167.76912592 892.16801722 -1165.90007019 884.18758392 C-1165.24007019 884.18758392 -1164.58007019 884.18758392 -1163.90007019 884.18758392 C-1163.73571472 883.0796347 -1163.73571472 883.0796347 -1163.56803894 881.94930267 C-1162.28890982 873.76495617 -1160.89743574 865.59321903 -1157.45817566 858.007164 C-1155.8329042 854.24447874 -1154.92819125 850.40703292 -1154.09147644 846.40633392 C-1151.9826613 836.9385193 -1148.97818868 827.85500226 -1145.83757019 818.68758392 C-1145.30234416 817.10709868 -1144.76783683 815.52636986 -1144.23405457 813.94539642 C-1143.22809921 810.96862045 -1142.21746676 807.9935114 -1141.20231628 805.01985931 C-1140.15428518 801.94590685 -1139.13244652 798.8642061 -1138.12272644 795.77742767 C-1136.90007019 792.18758392 -1136.90007019 792.18758392 -1135.40007019 789.25008392 C-1134.11626826 786.62898831 -1133.31369833 784.34936538 -1132.52507019 781.56258392 C-1130.23963334 773.62307153 -1126.83106119 766.15828005 -1123.33757019 758.68758392 C-1121.12259841 753.89078567 -1119.4810475 749.01683597 -1117.87663269 743.98836517 C-1116.54973797 740.18283113 -1114.75175238 736.76324609 -1112.90007019 733.18758392 C-1112.53391318 731.86288851 -1112.19165996 730.53066408 -1111.90007019 729.18758392 C-1111.24007019 729.18758392 -1110.58007019 729.18758392 -1109.90007019 729.18758392 C-1109.67190613 727.93461517 -1109.44374207 726.68164642 -1109.20866394 725.39070892 C-1107.90679582 719.54203491 -1105.49973003 714.34140489 -1102.96257019 708.93758392 C-1102.51977722 707.97078705 -1102.07698425 707.00399017 -1101.62077332 706.00789642 C-1099.57323832 701.57716495 -1097.42518822 697.36684864 -1094.90007019 693.18758392 C-1094.24020683 691.61846003 -1093.61474741 690.03440897 -1093.02507019 688.43758392 C-1091.38433845 684.20424555 -1089.38817504 680.39567981 -1087.11882019 676.47274017 C-1085.83919175 674.07343686 -1084.86252004 671.66703816 -1083.90007019 669.12508392 C-1082.35639488 665.08152957 -1080.41408175 661.6968063 -1078.04069519 658.09383392 C-1076.60939436 655.70179693 -1075.7978165 653.16645804 -1074.88444519 650.54305267 C-1073.35297831 646.87847122 -1071.30528313 643.5264106 -1069.29972839 640.10408783 C-1066.30082616 634.96060214 -1063.52094476 629.7198625 -1060.77507019 624.43758392 C-1057.76097805 618.65332448 -1054.67787135 612.96934569 -1051.24772644 607.41805267 C-1049.77775493 604.9851433 -1048.4299244 602.50556793 -1047.08757019 600.00008392 C-1043.26057895 592.92114157 -1039.0812561 586.06036788 -1034.90007019 579.18758392 C-1034.4650116 578.47118744 -1034.029953 577.75479095 -1033.58171082 577.01668549 C-1030.82826448 572.48522005 -1028.06294595 567.96121868 -1025.28630066 563.44393158 C-1024.36192258 561.9393345 -1023.43907081 560.43379865 -1022.51774597 558.92733002 C-1021.19175493 556.76102242 -1019.8593161 554.59881461 -1018.52507019 552.43758392 C-1018.13263123 551.7944223 -1017.74019226 551.15126068 -1017.33586121 550.48860931 C-1015.48380118 547.50409956 -1013.57957095 544.72154393 -1011.29850769 542.04695892 C-1009.16258734 539.50055225 -1007.53221302 537.06810795 -1005.90007019 534.18758392 C-1001.71250522 527.3564103 -997.23430991 520.79963573 -992.52726746 514.32186127 C-990.08202823 510.92997248 -987.84809444 507.51276136 -985.77507019 503.87508392 C-983.30952765 499.62081445 -980.35681946 496.24529621 -977.02507019 492.64852142 C-974.21513431 489.39436774 -971.86431007 485.88827868 -969.4584198 482.33016205 C-962.51962686 472.14251927 -954.53758075 462.70096203 -946.74577332 453.16243744 C-943.15330909 448.75782427 -939.63554917 444.30209262 -936.15007019 439.81258392 C-932.32075301 434.89182216 -928.30991081 430.21693175 -924.09147644 425.62117767 C-918.48933202 419.39990143 -913.24740046 412.85328745 -908.38444519 406.03914642 C-905.62921983 402.60236532 -902.36790126 399.64315741 -899.21647644 396.57430267 C-894.47273057 391.92475884 -890.07285782 387.33939382 -886.23600769 381.89461517 C-884.86466194 380.14234005 -883.45656827 378.87401412 -881.71257019 377.50008392 C-878.85083026 375.42228396 -878.85083026 375.42228396 -877.52507019 372.81258392 C-875.9615425 370.28688535 -874.72526548 369.07706896 -872.47819519 367.20711517 C-866.50924337 362.07706483 -861.08062965 356.39975105 -855.58366394 350.77523041 C-854.19608018 349.35763589 -852.80208601 347.94632487 -851.40788269 346.53524017 C-850.58948914 345.70000824 -849.77109558 344.86477631 -848.92790222 344.00423431 C-846.90007019 342.18758392 -846.90007019 342.18758392 -844.90007019 342.18758392 C-844.62421082 341.59590424 -844.34835144 341.00422455 -844.06413269 340.39461517 C-840.94267759 334.4764201 -835.83038677 330.09848194 -830.79069519 325.82820892 C-829.12984109 324.38697189 -827.60401963 322.90211526 -826.08757019 321.31258392 C-823.90007019 319.18758392 -823.90007019 319.18758392 -820.90007019 318.18758392 C-820.90007019 317.52758392 -820.90007019 316.86758392 -820.90007019 316.18758392 C-819.91007019 315.85758392 -818.92007019 315.52758392 -817.90007019 315.18758392 C-817.57007019 314.52758392 -817.24007019 313.86758392 -816.90007019 313.18758392 C-816.24007019 313.18758392 -815.58007019 313.18758392 -814.90007019 313.18758392 C-814.90007019 312.52758392 -814.90007019 311.86758392 -814.90007019 311.18758392 C-813.18522644 309.53133392 -813.18522644 309.53133392 -810.96257019 307.68758392 C-807.97961841 305.29831394 -807.97961841 305.29831394 -805.90007019 302.18758392 C-804.91007019 302.18758392 -803.92007019 302.18758392 -802.90007019 302.18758392 C-802.90007019 301.52758392 -802.90007019 300.86758392 -802.90007019 300.18758392 C-801.26039809 298.82119051 -799.58896891 297.49264203 -797.90007019 296.18758392 C-797.26069519 295.52758392 -796.62132019 294.86758392 -795.96257019 294.18758392 C-793.90007019 292.18758392 -793.90007019 292.18758392 -791.15007019 290.37508392 C-787.67530315 288.03629842 -784.70707426 285.41264969 -781.63444519 282.57820892 C-779.90007019 281.18758392 -779.90007019 281.18758392 -777.90007019 281.18758392 C-777.90007019 280.52758392 -777.90007019 279.86758392 -777.90007019 279.18758392 C-775.81034749 277.39218837 -773.72164937 275.71696951 -771.52507019 274.06258392 C-770.92178894 273.59465424 -770.31850769 273.12672455 -769.69694519 272.64461517 C-765.16148145 269.18758392 -765.16148145 269.18758392 -762.90007019 269.18758392 C-762.57007019 268.19758392 -762.24007019 267.20758392 -761.90007019 266.18758392 C-759.92060427 264.82395184 -757.91814569 263.49339748 -755.90007019 262.18758392 C-754.56134972 260.85965958 -753.22836262 259.52593917 -751.90007019 258.18758392 C-750.52402211 257.05885615 -749.12735747 255.95485782 -747.71257019 254.87508392 C-745.267805 253.00413139 -742.8291351 251.13117098 -740.41960144 249.21492767 C-739.62940613 248.58715424 -738.83921082 247.9593808 -738.02507019 247.31258392 C-737.30577332 246.73766205 -736.58647644 246.16274017 -735.84538269 245.57039642 C-733.90007019 244.18758392 -733.90007019 244.18758392 -730.90007019 243.18758392 C-730.90007019 242.52758392 -730.90007019 241.86758392 -730.90007019 241.18758392 C-730.24007019 241.18758392 -729.58007019 241.18758392 -728.90007019 241.18758392 C-728.90007019 240.52758392 -728.90007019 239.86758392 -728.90007019 239.18758392 C-726.92007019 238.52758392 -724.94007019 237.86758392 -722.90007019 237.18758392 C-722.90007019 236.52758392 -722.90007019 235.86758392 -722.90007019 235.18758392 C-722.3083905 234.88465424 -721.71671082 234.58172455 -721.10710144 234.26961517 C-716.26127758 231.70045896 -712.74777835 229.13654756 -708.90007019 225.18758392 C-707.27150095 224.24301377 -705.63997085 223.30238341 -703.98210144 222.41024017 C-697.86153266 218.81598496 -692.28067131 214.24526711 -686.65007019 209.93758392 C-683.81973788 207.80051115 -680.92176638 206.01509252 -677.80632019 204.30867767 C-674.55139133 202.39440598 -671.51850076 200.16215935 -668.43913269 197.98055267 C-663.17147265 194.26077427 -657.83182033 190.71111495 -652.27507019 187.43758392 C-647.16458039 184.41447728 -642.24960277 181.12741745 -637.34098816 177.79012299 C-626.09343729 170.18758392 -626.09343729 170.18758392 -620.90007019 170.18758392 C-620.90007019 169.52758392 -620.90007019 168.86758392 -620.90007019 168.18758392 C-618.38053894 166.49617767 -618.38053894 166.49617767 -615.08757019 164.62508392 C-614.00862488 164.00504486 -612.92967957 163.3850058 -611.81803894 162.74617767 C-608.90007019 161.18758392 -608.90007019 161.18758392 -605.90007019 160.18758392 C-605.57007019 159.52758392 -605.24007019 158.86758392 -604.90007019 158.18758392 C-603.29468415 157.50444093 -601.68679094 156.82670361 -600.06803894 156.17586517 C-596.64226004 154.6142038 -593.5143652 152.58921003 -590.32975769 150.58992767 C-587.90007019 149.18758392 -587.90007019 149.18758392 -585.30632019 148.15242767 C-583.04802142 147.24690853 -581.44388237 146.28211325 -579.52507019 144.81258392 C-572.36376595 139.54964266 -564.58031107 136.10982571 -556.40007019 132.75008392 C-552.85933386 131.16939806 -549.54842909 129.36157443 -546.17350769 127.46102142 C-543.99097238 126.23850164 -541.80325484 125.0364651 -539.58757019 123.87508392 C-538.66524597 123.3858847 -538.66524597 123.3858847 -537.72428894 122.88680267 C-535.90007019 122.18758392 -535.90007019 122.18758392 -531.90007019 122.18758392 C-531.90007019 121.52758392 -531.90007019 120.86758392 -531.90007019 120.18758392 C-530.00215324 119.23862545 -528.10402451 118.29008785 -526.20475769 117.34383392 C-524.68492048 116.58133932 -523.16915519 115.81066608 -521.65788269 115.03133392 C-520.95405457 114.67039642 -520.25022644 114.30945892 -519.52507019 113.93758392 C-518.55440613 113.43484955 -518.55440613 113.43484955 -517.56413269 112.92195892 C-515.90007019 112.18758392 -515.90007019 112.18758392 -513.90007019 112.18758392 C-513.90007019 111.52758392 -513.90007019 110.86758392 -513.90007019 110.18758392 C-513.17561707 109.93363861 -512.45116394 109.6796933 -511.70475769 109.41805267 C-507.48941942 107.91739225 -503.40676702 106.44093234 -499.40007019 104.43758392 C-496.90007019 103.18758392 -496.90007019 103.18758392 -493.90007019 103.18758392 C-493.90007019 102.52758392 -493.90007019 101.86758392 -493.90007019 101.18758392 C-493.05444519 100.94524017 -492.20882019 100.70289642 -491.33757019 100.45320892 C-485.599981 98.75801212 -480.25033125 97.03465967 -474.98991394 94.18758392 C-472.35976532 92.92904552 -469.67673156 92.07500628 -466.90007019 91.18758392 C-462.64738477 89.82331391 -458.79660793 88.25176741 -454.85319519 86.17586517 C-450.99277668 84.22249341 -446.93002272 82.75084007 -442.90007019 81.18758392 C-441.47012502 80.62052492 -440.04046043 80.0527581 -438.61100769 79.48445892 C-425.1100062 74.14352787 -425.1100062 74.14352787 -419.58757019 72.62508392 C-415.72717362 71.55787532 -412.31366992 70.00267725 -408.71257019 68.25008392 C-402.78635035 65.42641447 -396.91510035 63.70164099 -390.55632019 62.12508392 C-384.26395202 60.51165619 -378.16577549 58.33414986 -372.04069519 56.18367767 C-369.13063301 55.26071019 -366.21824395 54.52658588 -363.24382019 53.84383392 C-357.6956914 52.56349651 -352.53338094 51.21918634 -347.40007019 48.68758392 C-341.30928503 45.73202593 -334.96983233 44.26908186 -328.40690613 42.7661972 C-324.48695984 41.86141802 -320.5771768 40.91482817 -316.66593933 39.97322845 C-314.49113078 39.45005181 -312.31583702 38.92888798 -310.14006042 38.40975189 C-305.42628199 37.28436288 -300.71592277 36.15184754 -296.02116394 34.94930267 C-295.30315613 34.76561127 -294.58514832 34.58191986 -293.84538269 34.39266205 C-291.9965541 33.91606713 -290.14940009 33.43298855 -288.30241394 32.94930267 C-284.49788782 32.09754309 -280.77359786 31.61609027 -276.90007019 31.18758392 C-276.90007019 30.52758392 -276.90007019 29.86758392 -276.90007019 29.18758392 C-275.803078 29.06641205 -274.70608582 28.94524017 -273.57585144 28.82039642 C-272.12138196 28.65149029 -270.66695716 28.48219911 -269.21257019 28.31258392 C-268.49133972 28.23395111 -267.77010925 28.1553183 -267.02702332 28.07430267 C-262.97180731 27.5928615 -259.67858338 26.79584349 -255.90007019 25.18758392 C-245.14461385 22.2905308 -234.35938832 20.66357759 -223.30607605 19.40486908 C-213.65232698 18.25923681 -204.20371923 16.37623409 -194.69694519 14.37117767 C-182.04042418 11.74473069 -169.29266368 10.17624676 -156.46257019 8.68758392 C-155.51287354 8.57675476 -154.56317688 8.4659256 -153.58470154 8.35173798 C-138.41058346 6.59122166 -123.27369691 5.2828016 -108.0221405 4.38924408 C-104.17793179 4.1409397 -100.34677972 3.79542641 -96.51091003 3.44368744 C-64.43937975 0.57263135 -32.18244857 -0.00155752 0 0 Z " fill="#FEFEFE" transform="translate(1605.9000701904297,398.81241607666016)"/>
<path d="M0 0 C263.01 0 526.02 0 797 0 C799.25 7.875 799.25 7.875 799.1953125 11.40234375 C799.18886719 12.14677734 799.18242187 12.89121094 799.17578125 13.65820312 C799.15902344 14.41037109 799.14226563 15.16253906 799.125 15.9375 C799.11597656 16.71673828 799.10695313 17.49597656 799.09765625 18.29882812 C799.07433691 20.19935447 799.03847586 22.09972008 799 24 C799.66 24 800.32 24 801 24 C806.07893602 61.1549972 809.72607048 98.50693641 811 136 C811.04511719 137.28068359 811.09023437 138.56136719 811.13671875 139.88085938 C813.51820728 209.06841018 814.02336298 280.10885197 802.64526367 348.59692383 C801.56620403 355.11212006 800.67824643 361.46009017 800.5 368.0625 C800.19183668 377.07394249 798.13810716 385.65938227 796.19921875 394.44140625 C795.04768811 399.66744924 794.20108204 404.86530825 793.45703125 410.1640625 C792.97119984 413.17870868 792.29070364 416.09740414 791.5625 419.0625 C790.2330974 424.55868687 789.3919113 430.03115329 788.625 435.625 C787.32571034 444.89999679 785.14034766 453.7612295 782.61865234 462.77001953 C781.65847191 466.23106455 780.75547894 469.70541136 779.875 473.1875 C779.71064453 473.83549561 779.54628906 474.48349121 779.37695312 475.15112305 C778.23624819 479.76301159 777.36949089 484.38523511 776.5625 489.0625 C775.39911025 495.75974157 773.46962734 501.87430493 771.20703125 508.29296875 C769.31712281 514.09725064 768.13634965 520.00413882 767 526 C766.34 526 765.68 526 765 526 C765.04125 526.886875 765.0825 527.77375 765.125 528.6875 C764.99691981 532.08162502 764.3218387 533.91570971 763 537 C762.5602634 538.82659819 762.12089711 540.65328649 761.68359375 542.48046875 C760.66326148 546.24112197 759.36273633 549.90186375 758.09838867 553.58642578 C756.18527844 559.25188321 754.58843421 564.98644247 753 570.75 C751.18288922 577.29566262 749.16397471 583.38229558 746.14453125 589.48828125 C744.38159865 593.35710604 743.29514824 597.3963076 742.09765625 601.46875 C739.24083015 610.6593934 735.60279993 619.62256043 731.984375 628.53515625 C730.84651218 631.38432862 729.7697405 634.25425166 728.6875 637.125 C726.20927451 643.60061089 723.4584041 649.93709594 720.6484375 656.2734375 C717.36406723 663.68978828 714.36296337 671.17384297 711.51757812 678.76757812 C711.22173828 679.54166016 710.92589844 680.31574219 710.62109375 681.11328125 C710.3573999 681.81235596 710.09370605 682.51143066 709.82202148 683.23168945 C709 685 709 685 707 687 C706.36954278 688.43858875 705.79365303 689.90141415 705.25 691.375 C703.28125661 696.48189076 700.89702642 701.29067475 698.3671875 706.140625 C696.9488662 708.9412431 696.9488662 708.9412431 696.09790039 711.81347656 C694.99446417 715.01606707 693.64402012 717.8489241 692.06640625 720.84375 C691.2165918 722.46603516 691.2165918 722.46603516 690.34960938 724.12109375 C689.75986328 725.23613281 689.17011719 726.35117188 688.5625 727.5 C687.39678977 729.71856842 686.23141439 731.93731282 685.06640625 734.15625 C684.2921228 735.62288086 684.2921228 735.62288086 683.50219727 737.11914062 C681.44143492 741.07119583 679.46045458 745.05990524 677.5 749.0625 C676 752 676 752 674.5 754.4375 C672.69647077 757.51852909 671.38480666 760.71108419 670 764 C669.01462479 766.0072458 668.01936943 768.00980253 667 770 C666.34 770 665.68 770 665 770 C664.74992187 770.845625 664.49984375 771.69125 664.2421875 772.5625 C662.89544888 776.28932386 661.12327666 779.59772969 659.125 783 C658.78597656 783.59039063 658.44695313 784.18078125 658.09765625 784.7890625 C656.4134807 787.69634653 654.66550117 790.49761134 652.7890625 793.2890625 C651.22025167 795.66625621 650.42666138 797.22670103 650 800 C649.34 800 648.68 800 648 800 C647.75378906 800.67804687 647.50757812 801.35609375 647.25390625 802.0546875 C645.75316226 805.57979955 643.87653319 808.82968421 641.9375 812.125 C639.11484561 816.89033897 639.11484561 816.89033897 637 822 C636.34 822 635.68 822 635 822 C634.7525 822.721875 634.505 823.44375 634.25 824.1875 C633 827 633 827 631.125 829.3125 C628.94823585 832.06546642 627.5874375 834.72320283 626.07421875 837.86328125 C624.31220588 841.36808504 622.42058787 844.90428218 620 848 C619.34 848 618.68 848 618 848 C617.773125 848.83144531 617.54625 849.66289062 617.3125 850.51953125 C615.73409133 854.70513281 613.53402025 858.02765075 611 861.6875 C610.54882812 862.35072266 610.09765625 863.01394531 609.6328125 863.69726562 C608.79616133 864.92625174 607.95666158 866.15330747 607.11328125 867.37768555 C606.0621809 868.9093877 605.03044777 870.45432835 604 872 C603.34 872 602.68 872 602 872 C601.73445313 872.72960938 601.46890625 873.45921875 601.1953125 874.2109375 C600.002833 876.99338966 598.63889462 879.17195586 596.875 881.625 C595.94880859 882.92244141 595.94880859 882.92244141 595.00390625 884.24609375 C593.6422771 886.11733849 592.27487226 887.98439129 590.90234375 889.84765625 C587.27921302 894.77105072 583.87822768 899.6033231 581 905 C580.34 905 579.68 905 579 905 C578.71125 905.763125 578.4225 906.52625 578.125 907.3125 C577 910 577 910 575 913 C574.34 913 573.68 913 573 913 C572.72019287 913.58990723 572.44038574 914.17981445 572.15209961 914.78759766 C571.08787211 916.83125724 569.950238 918.56230585 568.56640625 920.3984375 C568.08776123 921.03579834 567.60911621 921.67315918 567.1159668 922.32983398 C566.60332275 923.00473877 566.09067871 923.67964355 565.5625 924.375 C564.76549683 925.43086304 564.76549683 925.43086304 563.95239258 926.50805664 C559.52842066 932.34922033 555.02219247 938.12351237 550.47265625 943.8671875 C548.33106821 946.58054233 546.22350515 949.31586043 544.125 952.0625 C541.61979402 955.29617013 538.89412116 958.10587884 536 961 C532.52669524 965.19167904 529.15663135 969.46634518 525.87890625 973.8125 C525.25886719 974.534375 524.63882813 975.25625 524 976 C523.34 976 522.68 976 522 976 C521.67 977.32 521.34 978.64 521 980 C520.34 980 519.68 980 519 980 C519 980.66 519 981.32 519 982 C518.34 982 517.68 982 517 982 C516.75636719 982.56203125 516.51273438 983.1240625 516.26171875 983.703125 C514.75819064 986.44019785 512.93300252 988.45795941 510.8125 990.75 C509.60013672 992.07257813 509.60013672 992.07257813 508.36328125 993.421875 C507.58339844 994.27265625 506.80351562 995.1234375 506 996 C504.82838939 997.32899114 503.66126608 998.6619604 502.5 1000 C499.09357457 1003.91225194 495.61696197 1007.75888414 492.13671875 1011.60546875 C490.29912032 1013.66478838 488.51616765 1015.75469076 486.75 1017.875 C484.42016837 1020.63315722 481.86315689 1022.79127897 479 1025 C478.67 1025.66 478.34 1026.32 478 1027 C477.34 1027 476.68 1027 476 1027 C475.75765625 1027.58136719 475.5153125 1028.16273437 475.265625 1028.76171875 C473.77001265 1031.40673689 472.07851827 1032.86810804 469.75 1034.8125 C466.27215837 1037.80622608 463.30227284 1040.86758359 460.40234375 1044.41015625 C458.99447211 1046.00626699 457.53455191 1047.29653077 455.875 1048.625 C452.99630746 1050.83337424 452.99630746 1050.83337424 451.125 1053.375 C449.21634683 1055.73274803 447.3610708 1057.48264072 445.0625 1059.4375 C442.588648 1061.54688025 440.59687631 1063.48374843 438.5 1066 C435.98699515 1069.01560582 433.35593248 1071.4050025 430.37890625 1073.94140625 C426.97721614 1076.88506912 423.68549445 1079.94473984 420.38842773 1083.00463867 C411.66116616 1091.06293191 411.66116616 1091.06293191 407.5625 1093.375 C404.517481 1095.30598766 402.32373799 1097.65195808 399.828125 1100.234375 C397.64237707 1102.34539651 395.31734885 1104.01362245 392.7734375 1105.6640625 C390.27866228 1107.54338657 388.20278241 1109.7875137 386 1112 C384.03670977 1113.7337446 382.06713025 1115.44101193 380.0625 1117.125 C379.22259521 1117.83342041 379.22259521 1117.83342041 378.36572266 1118.55615234 C373.68889669 1122.47534548 368.91355078 1126.26005867 364.09863281 1130.00756836 C360.45468787 1132.84519141 356.86801618 1135.73889981 353.3125 1138.6875 C338.33303249 1151 338.33303249 1151 335 1151 C335 1151.66 335 1152.32 335 1153 C329.91504887 1157.69610192 323.6209132 1161.26797507 317.8671875 1165.0703125 C314.91365256 1167.05811394 312.0768837 1169.14720559 309.25 1171.30859375 C303.91639397 1175.318058 298.44299395 1179.14108958 293 1183 C292.10796875 1183.63292969 291.2159375 1184.26585938 290.296875 1184.91796875 C282.35636702 1190.51474615 274.34773542 1196.02630901 266 1201 C264.49671399 1201.95317048 262.996974 1202.91194672 261.5 1203.875 C254.94786848 1208.06157995 248.32680979 1212.13555765 241.70117188 1216.20458984 C237.48819566 1218.80112354 233.3223943 1221.43657023 229.2265625 1224.21484375 C225.92336077 1226.43654035 222.61422012 1228.31336394 219 1230 C214.52155952 1232.17411017 210.47653545 1234.58271682 206.39501953 1237.41967773 C198.26150593 1242.78647015 189.27172051 1246.96840104 180.625 1251.4375 C174.03713141 1254.85056175 167.45364959 1258.26418266 160.9375 1261.8125 C150.65914972 1267.3862631 140.17092256 1272.52920854 129.53125 1277.375 C126.05134192 1278.97637363 122.5931639 1280.61791419 119.13647461 1282.26855469 C111.69637612 1285.81986478 104.23149561 1289.27726336 96.65722656 1292.53344727 C93.53139878 1293.87970786 90.43043129 1295.25474093 87.36328125 1296.73046875 C86.23277344 1297.27316406 85.10226563 1297.81585937 83.9375 1298.375 C82.95652344 1298.85710937 81.97554687 1299.33921875 80.96484375 1299.8359375 C77.63931139 1301.14161424 74.5421007 1301.61969955 71 1302 C71 1302.66 71 1303.32 71 1304 C69.92621094 1304.39832031 68.85242187 1304.79664062 67.74609375 1305.20703125 C66.30986242 1305.74209782 64.87366638 1306.27725914 63.4375 1306.8125 C62.73302734 1307.07353516 62.02855469 1307.33457031 61.30273438 1307.60351562 C57.95746744 1308.85220973 54.66145764 1310.14535044 51.37890625 1311.5546875 C48.11948915 1312.94888903 44.84895825 1314.15232518 41.5 1315.3125 C36.47839853 1317.08014618 31.55044848 1318.97463059 26.625 1321 C20.73525031 1323.40993287 14.783041 1325.40157395 8.6953125 1327.24829102 C4.06727736 1328.65331096 -0.46028967 1330.22591362 -4.9921875 1331.91015625 C-21.17568015 1337.77404515 -37.76236708 1343.54071321 -54.5546875 1347.359375 C-57.01860985 1347.94804331 -57.01860985 1347.94804331 -59.34765625 1348.95703125 C-62.68102478 1350.26779619 -66.08804241 1351.10117186 -69.5625 1351.9375 C-70.26560303 1352.11007324 -70.96870605 1352.28264648 -71.69311523 1352.46044922 C-73.11928754 1352.81047584 -74.54579895 1353.1591239 -75.97265625 1353.50634766 C-78.8380621 1354.2040657 -81.70057957 1354.91313343 -84.5625 1355.625 C-85.51511719 1355.86089844 -86.46773437 1356.09679688 -87.44921875 1356.33984375 C-89.61460209 1356.9002569 -91.74031177 1357.52244463 -93.875 1358.1875 C-97 1359 -97 1359 -103 1359 C-103 1221.06 -103 1083.12 -103 941 C-99.37 939.68 -95.74 938.36 -92 937 C-89.70118488 936.08547668 -87.40832168 935.15567209 -85.125 934.203125 C-83.95582031 933.71972656 -82.78664063 933.23632812 -81.58203125 932.73828125 C-79.16182358 931.73272059 -76.74257533 930.72484814 -74.32421875 929.71484375 C-72.58591797 928.99748047 -72.58591797 928.99748047 -70.8125 928.265625 C-69.76707031 927.83024414 -68.72164062 927.39486328 -67.64453125 926.94628906 C-65 926 -65 926 -62 926 C-62 925.34 -62 924.68 -62 924 C-61.04130005 923.59273682 -61.04130005 923.59273682 -60.06323242 923.17724609 C-57.10219646 921.91551533 -54.1448679 920.64530326 -51.1875 919.375 C-50.18267578 918.94832031 -49.17785156 918.52164063 -48.14257812 918.08203125 C-42.05634583 915.4596675 -36.22755261 912.59604438 -30.46606445 909.31884766 C-28.02684184 908.01435498 -25.57252269 907.00917976 -23 906 C-20.83825812 904.79903229 -18.69382489 903.56665534 -16.5625 902.3125 C-11.84730473 899.56678592 -7.09816951 897.01228852 -2.1875 894.625 C6.1383783 890.51756671 14.06672378 885.81478919 22 881 C22.88300781 880.4647168 23.76601562 879.92943359 24.67578125 879.37792969 C27.47563078 877.67550369 30.27012103 875.96464881 33.0625 874.25 C33.93076416 873.71938965 34.79902832 873.1887793 35.69360352 872.64208984 C40.37549444 869.74681103 44.84600592 866.72354588 49.17822266 863.32470703 C51.14396391 861.89531652 53.16396102 860.75766334 55.3125 859.625 C60.9279138 856.61020666 65.90229062 852.80563068 71 849 C72.83142445 847.6640459 74.66474669 846.33068936 76.5 845 C77.41007812 844.33742188 78.32015625 843.67484375 79.2578125 842.9921875 C81.06239851 841.68116347 82.8696267 840.37376736 84.6796875 839.0703125 C92.85710674 833.16834905 101.00608002 827.15924214 108.7578125 820.703125 C111 819 111 819 113 819 C113 818.34 113 817.68 113 817 C114.6796875 815.4921875 114.6796875 815.4921875 116.875 813.875 C117.59429688 813.33617188 118.31359375 812.79734375 119.0546875 812.2421875 C121 811 121 811 123 811 C123 810.34 123 809.68 123 809 C124.40678023 807.75185669 125.87879704 806.5769161 127.375 805.4375 C133.97082248 800.28480278 140.09582195 794.68638346 146.23828125 789.0078125 C146.79990967 788.48864258 147.36153809 787.96947266 147.94018555 787.43457031 C149.02243122 786.43277559 150.10343187 785.42963324 151.18286133 784.42480469 C153.8935292 781.90919516 156.6371746 779.45900036 159.45703125 777.06640625 C165.60122903 771.7118832 171.28555909 765.8629644 177.03637695 760.09399414 C179.05764268 758.0673702 181.08419574 756.04614453 183.11132812 754.02539062 C191.56171983 745.59456169 191.56171983 745.59456169 199.53393555 736.71557617 C202.76009708 732.94034935 206.22577146 729.37318225 209.6328125 725.76171875 C210.18453125 725.17261719 210.73625 724.58351563 211.3046875 723.9765625 C211.79952637 723.45143066 212.29436523 722.92629883 212.80419922 722.38525391 C214.10712552 720.99069181 214.10712552 720.99069181 215 719 C215.66 719 216.32 719 217 719 C217.433125 718.1028125 217.433125 718.1028125 217.875 717.1875 C219 715 219 715 221 712 C221.66 712 222.32 712 223 712 C223.66 710.35 224.32 708.7 225 707 C225.66 707 226.32 707 227 707 C227.25136719 706.44054688 227.50273437 705.88109375 227.76171875 705.3046875 C230.1961637 700.77370163 233.75108662 696.96604397 237 693 C237.51691406 692.34515625 238.03382813 691.6903125 238.56640625 691.015625 C239.66458723 689.63880108 240.82567494 688.31248095 242 687 C242.66 687 243.32 687 244 687 C244.11021484 686.20335938 244.11021484 686.20335938 244.22265625 685.390625 C245.31043676 682.04528996 247.32716388 679.51094053 249.4375 676.75 C249.84548828 676.19570312 250.25347656 675.64140625 250.67382812 675.0703125 C251.72953309 673.67189091 252.85987587 672.33049348 254 671 C254.66 671 255.32 671 256 671 C256.12149414 670.40541992 256.24298828 669.81083984 256.36816406 669.19824219 C257.36317967 665.73644909 259.62515599 663.1022062 261.75 660.25 C264.65583189 656.28647007 267.4842769 652.35323341 270 648.125 C270.66 647.09375 271.32 646.0625 272 645 C272.66 645 273.32 645 274 645 C274.0825 644.443125 274.165 643.88625 274.25 643.3125 C275.23179767 640.28529053 277.00697583 638.49128021 279 636 C279.79317788 634.61674168 280.56200309 633.2193721 281.3125 631.8125 C283.68588874 627.41001039 286.46367867 623.41382555 289.3671875 619.34765625 C291.46969896 616.32466728 293.23235005 613.23053267 295 610 C295.74749174 608.68606988 296.49746 607.3735453 297.25 606.0625 C297.8275 605.051875 298.405 604.04125 299 603 C299.66 603 300.32 603 301 603 C301.12503906 602.4225 301.25007813 601.845 301.37890625 601.25 C302.00756942 598.97257869 302.85326718 597.09481963 303.9375 595 C304.44603516 594.01 304.44603516 594.01 304.96484375 593 C305.30644531 592.34 305.64804688 591.68 306 591 C306.66851659 589.66759323 307.33571747 588.33452274 308 587 C308.66 587 309.32 587 310 587 C310.268125 586.278125 310.53625 585.55625 310.8125 584.8125 C312 582 312 582 313.5 579.5625 C315.12532139 576.78590929 316.07124743 574.07202774 317 571 C317.66 571 318.32 571 319 571 C319.0928125 570.01 319.0928125 570.01 319.1875 569 C320.1391973 565.48604072 321.76444018 563.06095846 323.73828125 560.03515625 C325.52165351 557.15857128 326.73503419 554.13491526 328 551 C329.98552369 546.29196785 332.08834433 541.75164742 334.625 537.3125 C336.53551687 533.96174734 337.94764828 530.73106518 339 527 C339.66 527 340.32 527 341 527 C341.226875 525.741875 341.45375 524.48375 341.6875 523.1875 C342.74478576 518.42226839 344.55305297 514.28680609 346.640625 509.890625 C348.93935105 505.00252938 350.95468491 499.99815409 353 495 C353.32742188 494.21367188 353.65484375 493.42734375 353.9921875 492.6171875 C356.48364506 486.54297278 358.63500776 480.36644702 360.78881836 474.16699219 C362.0559476 470.55393449 363.35736785 467.02571613 365 463.5625 C367.05081449 459.15928066 368.57945345 454.59884095 370.125 450 C370.37894531 449.25177979 370.63289063 448.50355957 370.89453125 447.73266602 C372.38760716 443.21739511 373.57984523 438.72178831 374.52929688 434.0612793 C375.19217224 431.15844906 376.17445113 428.39378631 377.14453125 425.58203125 C379.93311223 417.16535532 382.07694551 408.65374519 384 400 C257.28 400 130.56 400 0 400 C0 268 0 136 0 0 Z " fill="#FEFEFE" transform="translate(1987,1405)"/>
<path d="M0 0 C0.66 0.33 1.32 0.66 2 1 C0.6701338 2.35757174 -0.66413071 3.71083496 -2 5.0625 C-2.7425 5.81660156 -3.485 6.57070313 -4.25 7.34765625 C-6.34015448 9.36358649 -8.4430033 11.25806641 -10.64453125 13.14453125 C-15.09748482 17.02912967 -19.27529293 21.14797691 -23.4375 25.33984375 C-24.58581299 26.49027916 -24.58581299 26.49027916 -25.75732422 27.66395569 C-28.17393197 30.08610881 -30.58701726 32.51173612 -33 34.9375 C-34.64950686 36.59202893 -36.29924429 38.24632802 -37.94921875 39.90039062 C-41.96881371 43.93094202 -45.98553169 47.96434272 -50 52 C-50.66 51.67 -51.32 51.34 -52 51 C-48.6390582 46.74939714 -45.18707429 43.4743808 -41 40 C-40.34 39.175 -39.68 38.35 -39 37.5 C-37.32853382 35.41066727 -35.86342379 33.97369956 -33.8125 32.3125 C-30.98352767 30.30609749 -30.98352767 30.30609749 -30 28 C-29.34 28 -28.68 28 -28 28 C-28 27.34 -28 26.68 -28 26 C-26.64453125 24.66796875 -26.64453125 24.66796875 -24.8125 23.1875 C-21.66969171 20.63354033 -18.85985447 17.86788777 -16 15 C-13.24565887 12.37818474 -10.466705 9.78291486 -7.6875 7.1875 C-6.94693359 6.49462891 -6.20636719 5.80175781 -5.44335938 5.08789062 C-3.62961716 3.39116403 -1.81514792 1.69522249 0 0 Z " fill="#9E61D1" transform="translate(1066,1001)"/>
<path d="M0 0 C1.16660156 0.00322266 2.33320312 0.00644531 3.53515625 0.00976562 C4.75847656 0.01814453 5.98179688 0.02652344 7.2421875 0.03515625 C8.47324219 0.03966797 9.70429687 0.04417969 10.97265625 0.04882812 C14.02088142 0.06064295 17.06901064 0.07711597 20.1171875 0.09765625 C20.1171875 0.42765625 20.1171875 0.75765625 20.1171875 1.09765625 C15.42642435 1.53422233 10.73489233 1.96092059 6.04248047 2.37939453 C4.45403213 2.52234529 2.86580318 2.66776036 1.27783203 2.81591797 C-9.48175334 3.81760198 -20.07343147 4.29769277 -30.8828125 4.09765625 C-30.8828125 3.76765625 -30.8828125 3.43765625 -30.8828125 3.09765625 C-30.19654785 3.04230713 -29.5102832 2.98695801 -28.80322266 2.92993164 C-25.70438815 2.67760322 -22.60611266 2.41895976 -19.5078125 2.16015625 C-17.88746094 2.02963867 -17.88746094 2.02963867 -16.234375 1.89648438 C-15.203125 1.80947266 -14.171875 1.72246094 -13.109375 1.6328125 C-12.15627441 1.55426025 -11.20317383 1.47570801 -10.22119141 1.39477539 C-6.54821756 0.92807992 -3.88430024 -0.01885583 0 0 Z " fill="#AC91DA" transform="translate(1505.8828125,400.90234375)"/>
<path d="M0 0 C-7.49718867 3.96625465 -15.72280168 3.11202223 -24 3 C-24 3.66 -24 4.32 -24 5 C-27.3 5 -30.6 5 -34 5 C-34 4.67 -34 4.34 -34 4 C-28.71134555 2.33063693 -23.63433515 1.44557631 -18.125 0.875 C-17.37347656 0.78863281 -16.62195312 0.70226562 -15.84765625 0.61328125 C-10.53935737 0.03965719 -5.33851274 -0.07429342 0 0 Z " fill="#BEAAE7" transform="translate(1515,803)"/>
<path d="M0 0 C3.68807156 0.11073668 7.37520029 0.24115972 11.0625 0.375 C12.62000977 0.42140625 12.62000977 0.42140625 14.20898438 0.46875 C19.80636091 0.68198339 24.7018472 1.15128285 30 3 C30 3.33 30 3.66 30 4 C28.52093108 4.02689216 27.04172517 4.04634621 25.5625 4.0625 C24.32693359 4.07990234 24.32693359 4.07990234 23.06640625 4.09765625 C21 4 21 4 20 3 C18.51562191 2.77376479 17.02222575 2.60587035 15.52734375 2.46484375 C14.62822266 2.37783203 13.72910156 2.29082031 12.80273438 2.20117188 C11.85720703 2.11416016 10.91167969 2.02714844 9.9375 1.9375 C8.98810547 1.84662109 8.03871094 1.75574219 7.06054688 1.66210938 C4.70737865 1.43743502 2.35389381 1.21691818 0 1 C0 0.67 0 0.34 0 0 Z " fill="#B6A9E6" transform="translate(1687,804)"/>
<path d="M0 0 C-1.23944276 0.86941494 -2.49207059 1.72005457 -3.75 2.5625 C-4.44609375 3.03816406 -5.1421875 3.51382813 -5.859375 4.00390625 C-8 5 -8 5 -10.265625 4.65234375 C-10.83796875 4.43707031 -11.4103125 4.22179687 -12 4 C-10.56988027 3.13353333 -9.13059381 2.28218171 -7.6875 1.4375 C-6.48673828 0.72400391 -6.48673828 0.72400391 -5.26171875 -0.00390625 C-3 -1 -3 -1 0 0 Z " fill="#B47FD7" transform="translate(1058,528)"/>
</svg>
