<?xml version="1.0" standalone="no"?>
<!DOCTYPE svg PUBLIC "-//W3C//DTD SVG 20010904//EN"
 "http://www.w3.org/TR/2001/REC-SVG-20010904/DTD/svg10.dtd">
<svg version="1.0" xmlns="http://www.w3.org/2000/svg"
 width="3200.000000pt" height="3200.000000pt" viewBox="0 0 3200.000000 3200.000000"
 preserveAspectRatio="xMidYMid meet">

<g transform="translate(0.000000,3200.000000) scale(0.100000,-0.100000)"
fill="#000000" stroke="none">
<path d="M0 16000 l0 -16000 16000 0 16000 0 0 16000 0 16000 -16000 0 -16000
0 0 -16000z m16840 11986 c977 -73 1909 -251 2805 -538 182 -58 462 -153 535
-182 19 -8 145 -58 280 -112 402 -159 754 -322 1184 -548 413 -216 1113 -656
1426 -896 19 -15 89 -67 155 -115 66 -49 165 -125 220 -169 55 -45 106 -86
115 -93 262 -208 657 -565 932 -843 246 -248 498 -518 498 -533 0 -5 -55 -54
-275 -246 -17 -14 -64 -55 -105 -91 -41 -36 -129 -113 -195 -170 -66 -58 -125
-109 -131 -115 -29 -26 -270 -235 -448 -389 -89 -77 -192 -167 -231 -202 -38
-34 -98 -86 -132 -115 -67 -59 -219 -192 -353 -308 -47 -41 -99 -86 -115 -100
-87 -75 -181 -157 -185 -162 -3 -3 -57 -50 -120 -105 -63 -54 -126 -109 -140
-121 -14 -12 -36 -31 -50 -43 -14 -13 -86 -75 -160 -139 -74 -64 -155 -135
-180 -157 -96 -89 -185 -164 -195 -164 -6 0 -52 44 -102 98 -450 481 -890 859
-1430 1225 -79 54 -145 97 -149 97 -3 0 -20 11 -37 24 -31 23 -200 126 -284
172 -24 13 -64 36 -90 51 -596 339 -1340 626 -2068 798 -132 31 -265 60 -295
65 -30 5 -122 20 -205 34 -281 46 -496 73 -715 88 -239 17 -978 17 -1215 0
-159 -11 -251 -21 -560 -62 -38 -5 -124 -19 -190 -30 -66 -11 -145 -25 -175
-29 -30 -5 -84 -16 -120 -25 -36 -8 -144 -34 -240 -56 -96 -23 -224 -57 -285
-75 -60 -19 -130 -39 -155 -45 -25 -7 -133 -41 -240 -77 -657 -219 -1313 -544
-1908 -945 -52 -35 -109 -74 -127 -88 -18 -14 -58 -43 -89 -65 -146 -103 -427
-325 -581 -460 -159 -140 -447 -420 -585 -571 -36 -39 -85 -93 -111 -120 -126
-136 -354 -422 -520 -649 -429 -591 -793 -1286 -1052 -2010 l-42 -120 -2073
-3 c-1454 -1 -2072 1 -2072 9 0 14 9 52 75 324 94 386 212 781 353 1180 44
124 70 192 167 440 27 69 137 324 216 500 76 172 306 628 388 774 39 68 71
126 71 129 0 7 166 286 279 467 237 381 577 860 835 1174 206 250 366 436 506
585 646 690 1169 1150 1910 1683 212 152 666 443 930 595 52 30 129 74 170 98
87 51 739 380 850 429 41 19 103 47 138 62 35 16 66 29 68 29 3 0 30 12 61 26
31 14 72 31 92 39 20 7 88 34 151 60 136 55 128 52 390 147 241 88 523 181
705 233 650 185 1240 305 1944 396 214 27 663 63 911 73 233 9 1174 -4 1370
-18z m1398 -16898 l-3 -6873 -115 -22 c-169 -32 -339 -60 -475 -77 -275 -36
-477 -59 -585 -66 -63 -5 -209 -17 -325 -27 -300 -25 -1188 -25 -1485 0 -113
10 -261 22 -330 27 -110 7 -273 26 -547 61 l-83 11 0 3539 c0 1946 -3 3539 -6
3539 -3 0 -1151 -1145 -2552 -2545 -2191 -2189 -2549 -2542 -2563 -2532 -9 7
-43 30 -75 53 -33 22 -97 69 -144 103 -47 34 -116 84 -155 112 -38 27 -86 62
-105 79 -19 16 -60 49 -91 72 -84 64 -417 338 -494 406 -491 436 -943 894
-1260 1277 -54 66 -102 122 -106 125 -3 3 -35 41 -69 85 -35 44 -70 88 -79 97
-21 22 -25 27 -101 128 -35 47 -67 87 -70 90 -19 16 -72 101 -67 107 4 5 1163
1165 2575 2578 l2567 2570 -3672 3 -3671 2 -12 53 c-6 28 -13 72 -16 97 -3 25
-13 106 -24 180 -79 555 -109 1019 -109 1675 0 657 31 1122 109 1665 11 74 22
159 25 189 4 30 11 63 16 73 9 17 242 18 7054 18 l7045 0 -2 -6872z m9606
6845 c9 -29 33 -187 50 -328 9 -71 23 -188 32 -260 8 -71 20 -195 24 -275 5
-80 17 -246 27 -370 24 -322 24 -1044 0 -1375 -10 -132 -22 -303 -27 -380 -21
-342 -109 -946 -206 -1405 -9 -41 -22 -106 -30 -145 -18 -87 -78 -336 -104
-430 -10 -38 -35 -126 -54 -195 -19 -69 -46 -163 -60 -210 -15 -47 -33 -107
-41 -135 -8 -27 -35 -111 -60 -185 -25 -74 -54 -162 -65 -195 -10 -33 -32 -96
-49 -140 -16 -44 -47 -127 -69 -185 -21 -58 -55 -143 -75 -190 -20 -47 -52
-123 -71 -170 -51 -126 -102 -243 -152 -348 -24 -50 -44 -94 -44 -97 0 -7
-174 -359 -243 -490 -70 -135 -195 -357 -271 -485 -75 -126 -85 -142 -103
-177 -9 -18 -20 -33 -25 -33 -4 0 -8 -4 -8 -10 0 -14 -104 -178 -269 -422 -47
-69 -105 -154 -128 -188 -22 -34 -52 -75 -65 -92 -12 -17 -41 -56 -63 -87 -22
-32 -62 -87 -90 -123 -27 -35 -86 -112 -129 -169 -44 -57 -83 -106 -86 -109
-4 -3 -44 -52 -90 -110 -46 -58 -87 -107 -90 -110 -3 -3 -30 -34 -60 -70 -82
-97 -193 -224 -200 -230 -3 -3 -53 -57 -110 -120 -163 -180 -499 -518 -680
-683 -91 -83 -169 -156 -175 -162 -5 -6 -26 -23 -45 -37 -19 -14 -62 -50 -96
-79 -434 -382 -998 -797 -1547 -1137 -81 -51 -150 -92 -152 -92 -3 0 -28 -15
-57 -34 -232 -148 -900 -491 -1263 -649 -390 -169 -1041 -411 -1295 -482 -25
-7 -124 -35 -220 -63 -184 -53 -443 -122 -460 -122 -7 0 -10 697 -10 2093 l0
2092 138 54 c373 148 885 405 1194 601 127 80 295 190 383 251 81 55 393 286
405 299 3 3 55 46 115 95 109 89 139 115 305 264 104 93 431 420 522 521 122
138 223 254 288 335 35 44 67 82 70 85 5 5 52 68 204 273 84 113 186 264 328
487 187 294 426 761 591 1155 52 124 173 447 193 515 7 25 29 97 50 160 20 63
48 161 63 217 l28 103 -1921 2 -1921 3 -3 1985 c-1 1092 0 1991 3 1998 3 9
810 12 3984 12 3781 0 3980 -1 3985 -17z"/>
</g>
</svg>
