<?xml version="1.0" encoding="UTF-8"?>
<svg version="1.1" xmlns="http://www.w3.org/2000/svg" width="976" height="768">
<path d="M0 0 C2.77842131 1.4321687 5.51971329 2.92140241 8.24584961 4.45068359 C10.69436665 5.82274201 13.15951888 7.16041581 15.62963867 8.49316406 C19.33495998 10.4968348 23.03214588 12.51445562 26.72338867 14.54394531 C32.61408047 17.78154719 38.52220542 20.98630463 44.43432617 24.18457031 C45.42996582 24.72355957 46.42560547 25.26254883 47.45141602 25.81787109 C50.48721102 27.46126117 53.52323513 29.10422722 56.55932617 30.74707031 C69.1403717 37.55473303 81.71604768 44.37164405 94.27075195 51.2277832 C101.02593072 54.91512106 107.79075306 58.58438486 114.55932617 62.24707031 C123.13917032 66.88989086 131.70832921 71.55178523 140.27026367 76.22753906 C147.02562605 79.91492168 153.79068641 83.58412496 160.55932617 87.24707031 C182.38843467 99.06601876 182.38843467 99.06601876 192.15014648 104.43066406 C194.37050902 105.64389823 196.59990056 106.83830697 198.83276367 108.02832031 C212.84333907 115.59910899 212.84333907 115.59910899 215.55932617 123.74707031 C215.65155455 125.21579632 215.68841843 126.68835325 215.69075394 128.15997028 C215.69459508 129.06792609 215.69843623 129.97588189 215.70239377 130.9113515 C215.70152729 131.91016682 215.70066081 132.90898213 215.69976807 133.93806458 C215.70422475 135.52814482 215.70422475 135.52814482 215.70877147 137.15034789 C215.71747759 140.72011286 215.71896833 144.28984438 215.72045898 147.85961914 C215.72508578 150.41187105 215.73011025 152.96412227 215.73550415 155.51637268 C215.74864294 162.46265762 215.75511245 169.4089315 215.75951481 176.35522676 C215.76227686 180.69194998 215.76651415 185.02867097 215.77101898 189.36539268 C215.78321179 201.37091463 215.79351115 213.37643478 215.79689407 225.38196278 C215.79711364 226.15042697 215.79733321 226.91889116 215.79755943 227.71064214 C215.7977777 228.48095156 215.79799598 229.25126098 215.79822087 230.04491311 C215.79866434 231.60586981 215.7991109 233.16682651 215.79956055 234.7277832 C215.79978198 235.50207268 215.80000341 236.27636215 215.80023155 237.07411494 C215.80417988 249.62142551 215.82163489 262.16867801 215.84492007 274.71596614 C215.86862991 287.59597375 215.88109575 300.47595222 215.88226199 313.35598201 C215.88317895 320.58850211 215.88893647 327.82094655 215.9070816 335.05344582 C215.92408616 341.8553218 215.92573797 348.65702959 215.9169426 355.45892906 C215.91617001 357.95749165 215.92054393 360.45606184 215.93040085 362.9546051 C215.94305505 366.36161789 215.93727871 369.76811633 215.92681885 373.17512512 C215.93890345 374.66330985 215.93890345 374.66330985 215.95123219 376.18155891 C215.90100714 383.161246 214.77484283 387.4339954 209.80932617 392.61816406 C204.61980438 396.79665192 198.56867895 399.6836918 192.67086792 402.72158813 C189.06251867 404.58080768 185.46976124 406.46973336 181.87573242 408.35644531 C181.15922012 408.73174881 180.44270782 409.10705231 179.70448303 409.49372864 C173.56123792 412.72132197 167.51495276 416.10434654 161.49682617 419.55957031 C153.16333798 424.33322893 144.71976015 428.8320789 136.18212891 433.22875977 C129.38268703 436.74838248 122.70489881 440.44573053 116.05932617 444.24707031 C107.53712951 449.12185943 98.91225961 453.73312769 90.18432617 458.22753906 C83.38421117 461.74770729 76.70573805 465.44549205 70.05932617 469.24707031 C61.51457305 474.13196487 52.87300899 478.77316729 44.12939453 483.29125977 C30.05168477 490.57474055 16.14184265 498.18542143 2.39160156 506.07006836 C-4.30995514 509.88702234 -9.78284608 510.86999323 -17.44067383 509.74707031 C-22.24431461 507.91486197 -26.64869032 505.55576589 -31.12719727 503.04345703 C-33.57571431 501.67139862 -36.04086653 500.33372481 -38.51098633 499.00097656 C-42.21630764 496.99730582 -45.91349353 494.97968501 -49.60473633 492.95019531 C-55.49542812 489.71259343 -61.40355308 486.50783599 -67.31567383 483.30957031 C-68.31131348 482.77058105 -69.30695313 482.2315918 -70.33276367 481.67626953 C-73.36855868 480.03287946 -76.40458279 478.38991341 -79.44067383 476.74707031 C-92.02171936 469.93940759 -104.59739533 463.12249658 -117.15209961 456.26635742 C-123.90727837 452.57901956 -130.67210072 448.90975576 -137.44067383 445.24707031 C-146.02051797 440.60424977 -154.58967687 435.9423554 -163.15161133 431.26660156 C-169.90697371 427.57921894 -176.67203406 423.91001566 -183.44067383 420.24707031 C-205.26978232 408.42812186 -205.26978232 408.42812186 -215.03149414 403.06347656 C-217.25185667 401.85024239 -219.48124821 400.65583366 -221.71411133 399.46582031 C-235.72468672 391.89503163 -235.72468672 391.89503163 -238.44067383 383.74707031 C-238.53290221 382.27834431 -238.56976609 380.80578738 -238.57210159 379.33417034 C-238.57594274 378.42621454 -238.57978388 377.51825874 -238.58374143 376.58278912 C-238.58287494 375.58397381 -238.58200846 374.58515849 -238.58111572 373.55607605 C-238.58408684 372.49602256 -238.58705797 371.43596906 -238.59011912 370.34379274 C-238.59882524 366.77402776 -238.60031599 363.20429625 -238.60180664 359.63452148 C-238.60643344 357.08226957 -238.61145791 354.53001835 -238.61685181 351.97776794 C-238.62999059 345.031483 -238.63646011 338.08520912 -238.64086246 331.13891387 C-238.64362452 326.80219065 -238.6478618 322.46546966 -238.65236664 318.12874794 C-238.66455945 306.123226 -238.6748588 294.11770585 -238.67824173 282.11217785 C-238.6784613 281.34371366 -238.67868086 280.57524947 -238.67890708 279.78349848 C-238.67912536 279.01318906 -238.67934364 278.24287964 -238.67956853 277.44922751 C-238.680012 275.88827081 -238.68045856 274.32731412 -238.6809082 272.76635742 C-238.68112963 271.99206795 -238.68135106 271.21777847 -238.6815792 270.42002568 C-238.68552753 257.87271512 -238.70298255 245.32546262 -238.72626773 232.77817448 C-238.74997757 219.89816687 -238.76244341 207.01818841 -238.76360965 194.13815862 C-238.76452661 186.90563852 -238.77028413 179.67319408 -238.78842926 172.44069481 C-238.80543382 165.63881882 -238.80708563 158.83711103 -238.79829025 152.03521156 C-238.79751767 149.53664898 -238.80189158 147.03807879 -238.8117485 144.53953552 C-238.82440271 141.13252274 -238.81862637 137.72602429 -238.8081665 134.3190155 C-238.81622291 133.32689235 -238.82427931 132.3347692 -238.83257985 131.31258172 C-238.7823548 124.33289463 -237.65619048 120.06014523 -232.69067383 114.87597656 C-227.50115204 110.6974887 -221.4500266 107.81044882 -215.55221558 104.77255249 C-211.94386632 102.91333295 -208.35110889 101.02440727 -204.75708008 99.13769531 C-204.04056778 98.76239182 -203.32405548 98.38708832 -202.58583069 98.00041199 C-196.44258557 94.77281866 -190.39630041 91.38979408 -184.37817383 87.93457031 C-176.04468564 83.16091169 -167.60110781 78.66206173 -159.06347656 74.26538086 C-152.26403468 70.74575815 -145.58624646 67.04841009 -138.94067383 63.24707031 C-130.41847717 58.37228119 -121.79360726 53.76101294 -113.06567383 49.26660156 C-106.26555883 45.74643333 -99.58708571 42.04864857 -92.94067383 38.24707031 C-84.39592071 33.36217576 -75.75435665 28.72097334 -67.01074219 24.20288086 C-52.93303243 16.91940008 -39.0231903 9.3087192 -25.27294922 1.42407227 C-16.90845087 -3.34003056 -8.90593159 -4.24502482 0 0 Z " fill="#18A7FB" transform="translate(499.440673828125,14.2529296875)"/>
<path d="M0 0 C2.77842131 1.4321687 5.51971329 2.92140241 8.24584961 4.45068359 C10.69436665 5.82274201 13.15951888 7.16041581 15.62963867 8.49316406 C19.33495998 10.4968348 23.03214588 12.51445562 26.72338867 14.54394531 C32.61408047 17.78154719 38.52220542 20.98630463 44.43432617 24.18457031 C45.42996582 24.72355957 46.42560547 25.26254883 47.45141602 25.81787109 C50.48721102 27.46126117 53.52323513 29.10422722 56.55932617 30.74707031 C69.1403717 37.55473303 81.71604768 44.37164405 94.27075195 51.2277832 C101.02593072 54.91512106 107.79075306 58.58438486 114.55932617 62.24707031 C123.13917032 66.88989086 131.70832921 71.55178523 140.27026367 76.22753906 C147.02562605 79.91492168 153.79068641 83.58412496 160.55932617 87.24707031 C182.52996191 99.14264595 182.52996191 99.14264595 192.14575195 104.42626953 C194.3808716 105.6494131 196.62342375 106.85765961 198.86791992 108.06347656 C200.11963339 108.74892377 201.37096839 109.43506281 202.62182617 110.12207031 C204.18610352 110.96898438 204.18610352 110.96898438 205.78198242 111.83300781 C209.1130947 114.12871107 211.10333449 116.54752151 213.55932617 119.74707031 C212.93856201 120.07795654 212.31779785 120.40884277 211.67822266 120.74975586 C203.52987605 125.13915068 195.56953701 129.82122762 187.62182617 134.55957031 C186.20613965 135.40186149 184.79044948 136.24414654 183.37475586 137.08642578 C169.71712211 145.22042384 156.13147803 153.47150987 142.55932617 161.74707031 C137.97732365 164.54092638 133.39443063 167.33330724 128.80932617 170.12207031 C128.23790894 170.46965393 127.6664917 170.81723755 127.07775879 171.175354 C116.93451672 177.34115439 106.73421964 183.40822412 96.51940918 189.45452881 C87.16320883 194.99374252 77.84277653 200.58681801 68.55932617 206.24707031 C57.9350349 212.72485248 47.25382882 219.10117485 36.54550171 225.43896484 C23.36561784 233.24189583 10.26376361 241.16908269 -2.81054688 249.14746094 C-3.67848877 249.67533203 -4.54643066 250.20320312 -5.44067383 250.74707031 C-6.27574463 251.35228516 -7.11081543 251.9575 -7.97119141 252.58105469 C-10.44067383 253.74707031 -10.44067383 253.74707031 -12.88769531 253.1418457 C-13.73017822 252.68156982 -14.57266113 252.22129395 -15.44067383 251.74707031 C-16.35985596 251.24618896 -17.27903809 250.74530762 -18.22607422 250.22924805 C-19.23661865 249.63571533 -20.24716309 249.04218262 -21.28833008 248.43066406 C-21.84842773 248.10264297 -22.40852539 247.77462189 -22.9855957 247.43666077 C-24.82705036 246.35642755 -26.66523438 245.27077213 -28.50317383 244.18457031 C-29.80384539 243.41889722 -31.10454574 242.65327304 -32.40527344 241.88769531 C-45.24822928 234.31537734 -57.98626871 226.57224243 -70.71075439 218.80310059 C-75.86796211 215.65488029 -81.0281237 212.51152169 -86.19067383 209.37207031 C-86.76181915 209.02466797 -87.33296448 208.67726562 -87.92141724 208.31933594 C-98.0649279 202.15334087 -108.26549573 196.08608498 -118.48059082 190.03961182 C-128.41105519 184.16041275 -138.29644912 178.21272047 -148.1496582 172.20507812 C-157.53910299 166.48254878 -166.97819263 160.84790484 -176.44067383 155.24707031 C-186.87027971 149.07286579 -197.27130417 142.85511716 -207.62817383 136.55957031 C-209.28236328 135.55410156 -209.28236328 135.55410156 -210.9699707 134.52832031 C-212.02635742 133.88507813 -213.08274414 133.24183594 -214.17114258 132.57910156 C-215.19385254 131.95729004 -216.2165625 131.33547852 -217.27026367 130.69482422 C-219.531504 129.30562236 -221.78011966 127.90372763 -224.02124023 126.48291016 C-224.6119783 126.11123215 -225.20271637 125.73955414 -225.81135559 125.35661316 C-227.46206766 124.31667742 -229.10836716 123.26974709 -230.75439453 122.22241211 C-233.36813451 120.5063755 -233.36813451 120.5063755 -236.44067383 120.74707031 C-232.58527227 111.87656052 -221.53293547 107.91697573 -213.44067383 103.68457031 C-212.19464836 103.0261034 -210.9490494 102.36682884 -209.70385742 101.70678711 C-207.1703736 100.36411771 -204.63554999 99.02403223 -202.09985352 97.68554688 C-196.73442153 94.8485426 -191.39930279 91.95581187 -186.06567383 89.05957031 C-184.59807617 88.26377563 -184.59807617 88.26377563 -183.10083008 87.4519043 C-175.63652694 83.40232106 -168.18142741 79.33592287 -160.72827148 75.26586914 C-152.96244629 71.0267388 -145.1828847 66.81322812 -137.40161133 62.60253906 C-130.74094806 58.99683117 -124.0880265 55.37725282 -117.44067383 51.74707031 C-108.77148065 47.01274147 -100.08892815 42.30351642 -91.40161133 37.60253906 C-83.83980279 33.50900188 -76.28889938 29.39582485 -68.74291992 25.27319336 C-63.93155029 22.64609732 -59.11548988 20.02807396 -54.29223633 17.42285156 C-53.26187256 16.86629883 -52.23150879 16.30974609 -51.16992188 15.73632812 C-49.12195521 14.6301201 -47.0739419 13.52399843 -45.02587891 12.41796875 C-38.36425288 8.8119885 -31.74032617 5.14615157 -25.17163086 1.37329102 C-16.85551105 -3.37275434 -8.84612401 -4.21651745 0 0 Z " fill="#1AD8DE" transform="translate(499.440673828125,14.2529296875)"/>
<path d="M0 0 C3.21483318 1.49920203 6.24792758 3.2277576 9.28540039 5.05102539 C9.91204086 5.42343857 10.53868134 5.79585175 11.18431091 6.17955017 C13.23973454 7.40259666 15.29191103 8.63097735 17.34399414 9.85961914 C18.78984549 10.72178648 20.23581062 11.58376304 21.68188477 12.44555664 C31.31311393 18.19209526 40.90774191 23.99762029 50.48416138 29.83499146 C59.87568264 35.55895064 69.31681094 41.19506061 78.78149414 46.79711914 C90.01267886 53.44549503 101.19746836 60.16412162 112.34399414 66.95336914 C120.80190232 72.10372803 129.28550354 77.20985176 137.78149414 82.29711914 C147.42866571 88.07369583 157.05335583 93.88515499 166.65649414 99.73461914 C178.42626001 106.90190981 190.26155924 113.95532465 202.12475586 120.96679688 C208.39001941 124.67200209 214.63474436 128.3968972 220.78149414 132.29711914 C219.46112944 136.25821324 217.91688728 136.662296 214.32446289 138.71118164 C213.47609863 139.2009549 213.47609863 139.2009549 212.6105957 139.70062256 C211.38139207 140.40922475 210.14987017 141.11381699 208.91635132 141.81488037 C205.57941282 143.71221473 202.25988899 145.63966474 198.93774414 147.56274414 C198.25350876 147.95775116 197.56927338 148.35275818 196.86430359 148.75973511 C190.17069917 152.63108171 183.56554059 156.6378047 176.96899414 160.67211914 C166.95072424 166.78969819 156.88364581 172.81911896 146.78149414 178.79711914 C136.74440182 184.73742989 126.73969415 190.72546234 116.78149414 196.79711914 C106.14820569 203.28038701 95.45782684 209.66189256 84.74047852 216.00512695 C74.24732186 222.21751836 63.80798874 228.51218909 53.39697266 234.86108398 C42.88631289 241.26316211 32.30274707 247.54066588 21.70141602 253.79125977 C20.42453246 254.54549406 19.14783498 255.30004346 17.87133789 256.05493164 C17.2626889 256.41455994 16.65403992 256.77418823 16.02694702 257.14471436 C11.22251849 259.99905493 6.52217971 262.99914071 1.85791016 266.07788086 C-0.21850586 267.29711914 -0.21850586 267.29711914 -2.21850586 267.29711914 C-2.21850586 266.63711914 -2.21850586 265.97711914 -2.21850586 265.29711914 C-2.87850586 265.29711914 -3.53850586 265.29711914 -4.21850586 265.29711914 C-5.38729277 262.95954532 -5.34381005 261.60315344 -5.344347 258.99888706 C-5.34695475 258.09107221 -5.34956249 257.18325736 -5.35224926 256.24793297 C-5.35001854 255.24415846 -5.34778782 254.24038394 -5.3454895 253.20619202 C-5.34704949 252.14487625 -5.34860948 251.08356048 -5.35021675 249.99008363 C-5.35422647 246.41020467 -5.35103718 242.83036761 -5.34790039 239.25048828 C-5.34925445 236.6935168 -5.35103441 234.1365455 -5.35321045 231.57957458 C-5.35730872 225.34105121 -5.35669254 219.10254353 -5.35379781 212.86401994 C-5.35154278 207.7949651 -5.35123169 202.72591364 -5.35232162 197.65685844 C-5.35247486 196.93640167 -5.35262809 196.2159449 -5.35278597 195.4736561 C-5.35310568 194.01021636 -5.35342989 192.54677662 -5.35375856 191.08333688 C-5.3566128 177.34776226 -5.3533273 163.6121943 -5.34795819 149.87662076 C-5.34349115 138.0835967 -5.34426537 126.29058248 -5.34887695 114.49755859 C-5.35422532 100.81390818 -5.35633712 87.13026361 -5.35326469 73.4466123 C-5.35294613 71.98814007 -5.35263176 70.52966784 -5.35232162 69.0711956 C-5.35216735 68.35353904 -5.35201307 67.63588249 -5.35185412 66.89647876 C-5.35098969 61.83235733 -5.35245029 56.76823959 -5.35480118 51.70411873 C-5.35789444 44.89081527 -5.35570026 38.07753332 -5.34990692 31.26423073 C-5.34858041 28.75796286 -5.3489716 26.25169343 -5.35116959 23.74542618 C-5.35388536 20.33527262 -5.3504946 16.92517957 -5.3454895 13.51502991 C-5.34772022 12.51348611 -5.34995095 11.51194232 -5.35224926 10.48004872 C-5.34833764 9.11441482 -5.34833764 9.11441482 -5.344347 7.72119236 C-5.34418465 6.93359738 -5.3440223 6.1460024 -5.34385502 5.3345409 C-5.21850586 3.29711914 -5.21850586 3.29711914 -4.21850586 0.29711914 C-2.21850586 -0.70288086 -2.21850586 -0.70288086 0 0 Z " fill="#136EF1" transform="translate(266.218505859375,134.702880859375)"/>
<path d="M0 0 C0.60908203 0.26731934 1.21816406 0.53463867 1.84570312 0.81005859 C2.78316422 3.62244189 2.97173286 5.32030335 2.97433758 8.22854519 C2.97756202 9.13773439 2.98078647 10.04692359 2.98410863 10.98366398 C2.98178572 12.48393331 2.98178572 12.48393331 2.97941589 14.01451111 C2.98168145 15.07597573 2.98394701 16.13744036 2.98628122 17.23107058 C2.99263644 20.80550653 2.99179088 24.37990471 2.9909668 27.9543457 C2.99395732 30.50984242 2.9973596 33.06533869 3.00114441 35.62083435 C3.00907838 41.85220146 3.01219951 48.08355463 3.01275679 54.31492632 C3.01323163 59.37870492 3.01528481 64.4424804 3.01845741 69.50625801 C3.0272653 83.85602988 3.03187653 98.20579427 3.03112694 112.55556887 C3.03108698 113.32944061 3.03104703 114.10331236 3.03100586 114.90063477 C3.03096498 115.67544886 3.0309241 116.45026295 3.03088198 117.24855626 C3.03047539 129.81013706 3.0400479 142.37168789 3.05414423 154.93326002 C3.0684967 167.82455791 3.07541505 180.71584118 3.07455045 193.60714728 C3.07421811 200.84740912 3.07698153 208.08763955 3.0877285 215.32789421 C3.09776713 222.13466387 3.09750973 228.94135603 3.09021187 235.74813271 C3.08916225 238.25075756 3.09155112 240.7533865 3.09757233 243.25600433 C3.10524191 246.66362302 3.10068089 250.07100908 3.09294128 253.47862244 C3.09808485 254.47657127 3.10322841 255.4745201 3.10852784 256.50270981 C3.10392904 257.41450675 3.09933025 258.3263037 3.09459209 259.26573086 C3.09491815 260.44574064 3.09491815 260.44574064 3.09525079 261.649589 C2.81534164 264.07291442 2.05234124 265.70677455 0.84570312 267.81005859 C-3.4221027 266.52672962 -6.95539203 264.90762817 -10.74023438 262.56396484 C-11.81917969 261.90138672 -12.898125 261.23880859 -14.00976562 260.55615234 C-14.58130371 260.20149902 -15.1528418 259.8468457 -15.74169922 259.48144531 C-18.85829613 257.5481507 -21.98756836 255.6355303 -25.11523438 253.72021484 C-25.77086365 253.31803741 -26.42649292 252.91585999 -27.10198975 252.50149536 C-34.40722441 248.02744152 -41.77989533 243.66877647 -49.15429688 239.31005859 C-59.76659869 233.03130709 -70.33531306 226.68711901 -80.86328125 220.26806641 C-90.25272247 214.54553923 -99.69168048 208.91065978 -109.15429688 203.31005859 C-119.76559786 197.02959002 -130.33528915 190.68713359 -140.86328125 184.26806641 C-150.25272292 178.54553896 -159.69169179 172.91067997 -169.15429688 167.31005859 C-182.90481033 159.1714524 -196.57569324 150.90840659 -210.21972656 142.59277344 C-214.52029779 139.98023008 -218.83514999 137.39174973 -223.15429688 134.81005859 C-221.8138403 130.78868887 -219.39771329 130.04704965 -215.84179688 128.18505859 C-208.13492652 123.99893996 -200.63460994 119.51152785 -193.15429688 114.93505859 C-182.86535965 108.65029264 -172.5309375 102.44890371 -162.15429688 96.31005859 C-150.97582784 89.69470173 -139.84872883 83.00206876 -128.75878906 76.23950195 C-119.68305334 70.71167309 -110.5502054 65.28332219 -101.40429688 59.87255859 C-89.70398229 52.96510997 -89.70398229 52.96510997 -78.15429688 45.81005859 C-70.50811869 40.94964669 -62.701013 36.36051711 -54.90429688 31.74755859 C-44.1196808 25.36629178 -33.3623633 18.94407818 -22.65429688 12.43505859 C-22.07401733 12.0825705 -21.49373779 11.7300824 -20.89587402 11.36691284 C-19.24192045 10.36182298 -17.5887209 9.35549264 -15.93554688 8.34912109 C-14.93652344 7.74358398 -13.9375 7.13804687 -12.90820312 6.51416016 C-11.16767211 5.43712944 -9.44347533 4.33281738 -7.74414062 3.19189453 C-2.63281125 -0.23213136 -2.63281125 -0.23213136 0 0 Z " fill="#1689FB" transform="translate(712.154296875,134.18994140625)"/>
<path d="M0 0 C0 84.48 0 168.96 0 256 C-12.38942635 249.24213108 -12.38942635 249.24213108 -18.08984375 245.85546875 C-19.01734184 245.30520271 -19.01734184 245.30520271 -19.96357727 244.74382019 C-21.95620205 243.56057933 -23.94695785 242.37424056 -25.9375 241.1875 C-27.35318652 240.34520882 -28.76887669 239.50292377 -30.18457031 238.66064453 C-44.41531123 230.18532434 -58.56683972 221.58106529 -72.70849609 212.95825195 C-76.72111141 210.51182882 -80.73478024 208.06714645 -84.75 205.625 C-85.32141724 205.27741638 -85.89283447 204.92983276 -86.48156738 204.57171631 C-96.62480945 198.40591592 -106.82510653 192.33884619 -117.03991699 186.2925415 C-126.97038137 180.41334244 -136.85577529 174.46565015 -146.70898438 168.45800781 C-156.76437692 162.32960722 -166.87781435 156.30310431 -177.01382446 150.30911255 C-184.39324314 145.94463102 -191.7566953 141.55750568 -199.07421875 137.08984375 C-199.7210965 136.695159 -200.36797424 136.30047424 -201.03445435 135.89382935 C-204.10402328 134.01961227 -207.17038932 132.14040972 -210.23242188 130.25390625 C-211.31458984 129.59132812 -212.39675781 128.92875 -213.51171875 128.24609375 C-214.45490967 127.66529053 -215.39810059 127.0844873 -216.36987305 126.48608398 C-218.8622944 125.07780692 -221.31805691 123.99111989 -224 123 C-224 120 -224 120 -221.4375 117.31640625 C-216.18636567 113.04525566 -210.10072617 110.11044392 -204.11154175 107.02548218 C-200.5031925 105.16626264 -196.91043506 103.27733695 -193.31640625 101.390625 C-192.59989395 101.0153215 -191.88338165 100.64001801 -191.14515686 100.25334167 C-185.00191175 97.02574835 -178.95562659 93.64272377 -172.9375 90.1875 C-164.60401181 85.41384138 -156.16043398 80.91499141 -147.62280273 76.51831055 C-140.82336086 72.99868783 -134.14557263 69.30133978 -127.5 65.5 C-118.97780334 60.62521088 -110.35293343 56.01394262 -101.625 51.51953125 C-94.824885 47.99936302 -88.14641188 44.30157826 -81.5 40.5 C-72.95524688 35.61510544 -64.31368282 30.97390302 -55.57006836 26.45581055 C-41.4923586 19.17232977 -27.58251647 11.56164889 -13.83227539 3.67700195 C-8.68085267 0.74294583 -6.1540495 0 0 0 Z " fill="#1CE7F0" transform="translate(488,12)"/>
<path d="M0 0 C0 84.48 0 168.96 0 256 C-10.12244898 254.87528345 -10.12244898 254.87528345 -14.28515625 252.515625 C-15.21537598 251.9992749 -16.1455957 251.4829248 -17.10400391 250.95092773 C-18.08030762 250.38962158 -19.05661133 249.82831543 -20.0625 249.25 C-22.19638226 248.0581777 -24.33050365 246.86678345 -26.46484375 245.67578125 C-27.54878418 245.06428223 -28.63272461 244.4527832 -29.74951172 243.82275391 C-34.84202947 240.96705783 -39.98452482 238.20560959 -45.125 235.4375 C-53.66400999 230.81673071 -62.1901953 226.17274136 -70.71142578 221.51928711 C-77.46660454 217.83194925 -84.23142689 214.16268545 -91 210.5 C-98.67429016 206.34720288 -106.34169775 202.1822081 -114 198 C-125.65118918 191.63804425 -137.32469551 185.317562 -149 179 C-157.00188672 174.67014158 -165.00222829 170.33745505 -173 166 C-173.91990723 165.50145508 -174.83981445 165.00291016 -175.78759766 164.48925781 C-181.22343673 161.54156599 -186.64991618 158.57746204 -192.06982422 155.60058594 C-195.27988503 153.84711496 -198.50142282 152.11566454 -201.72265625 150.3828125 C-203.98213249 149.1517052 -206.24125394 147.91994649 -208.5 146.6875 C-210.08542603 145.84360718 -210.08542603 145.84360718 -211.70288086 144.98266602 C-217.74440489 141.66039023 -221.88645885 138.5575068 -226 133 C-225.34 132.67 -224.68 132.34 -224 132 C-224 132.66 -224 133.32 -224 134 C-208.6222818 124.90618486 -193.25441402 115.79960681 -178 106.5 C-167.36610517 100.01764218 -156.67637057 93.63524899 -145.95898438 87.29199219 C-136.60315969 81.75294929 -127.28309988 76.16003861 -118 70.5 C-107.36671155 64.01673213 -96.6763327 57.63522658 -85.95898438 51.29199219 C-75.46582772 45.07960078 -65.0264946 38.78493005 -54.61547852 32.43603516 C-44.10481875 26.03395703 -33.52125293 19.75645326 -22.91992188 13.50585938 C-16.18949701 9.5308078 -9.53058036 5.48652263 -2.97875977 1.21923828 C-1 0 -1 0 0 0 Z " fill="#1689FB" transform="translate(488,268)"/>
<path d="M0 0 C1.20333984 -0.020625 2.40667969 -0.04125 3.64648438 -0.0625 C21.49242671 -0.13962995 36.12126105 5.85645943 49.17578125 17.98046875 C64.43249114 33.8460939 64.78581125 54.67883436 64.74609375 75.28515625 C64.75066473 77.37926908 64.75597301 79.47338042 64.76197815 81.56748962 C64.77085098 85.92518267 64.76854807 90.2826918 64.75854492 94.64038086 C64.74698497 100.21882631 64.76740338 105.79664532 64.79646206 111.37500858 C64.81480286 115.68588768 64.81453713 119.99661542 64.80882454 124.30752373 C64.80867148 126.36518682 64.81470305 128.42286026 64.82711601 130.48048592 C64.84200672 133.34945513 64.83136783 136.21724907 64.81420898 139.08618164 C64.82871094 140.35095589 64.82871094 140.35095589 64.84350586 141.64128113 C64.77664809 146.98435701 63.82799712 149.99204543 60.3125 154.25 C57.04019996 157.12565761 54.4389645 158.14168611 50.0625 158.5625 C44.61507353 158.10854779 41.13339991 156.31368656 37.4375 152.125 C35.7946869 147.92669984 35.56448774 143.72495468 35.3125 139.25 C34.77625 139.7346875 34.24 140.219375 33.6875 140.71875 C18.79994554 153.45152684 1.54181322 159.52019302 -17.9375 159.6875 C-18.93136719 159.6978125 -19.92523438 159.708125 -20.94921875 159.71875 C-34.02561452 159.56245842 -47.50443656 155.57963682 -57.125 146.375 C-66.82202469 135.77265143 -69.90161101 124.5526157 -69.6875 110.25 C-68.25028095 96.93828181 -62.97304336 86.81511974 -52.6875 78.25 C-33.95862231 64.00123154 -9.04689428 64.95004473 13.25 65.125 C15.49413661 65.13505394 17.73827761 65.1441755 19.98242188 65.15234375 C25.42587842 65.17415648 30.86916815 65.20744117 36.3125 65.25 C35.9124712 62.41343215 35.4930646 59.58196099 35.0625 56.75 C34.95292969 55.95851563 34.84335938 55.16703125 34.73046875 54.3515625 C33.36371727 45.57557931 30.32045812 39.32211826 23.3671875 33.71875 C10.27157788 24.35762982 -9.32637449 26.49121099 -24.421875 28.81689453 C-29.01208256 29.69437602 -33.46492586 31.08668493 -37.89111328 32.57299805 C-43.26885866 34.33767375 -48.14502183 35.40567189 -53.4375 33 C-56.44077481 30.66411959 -58.40212966 28.69112023 -59.15625 24.8828125 C-59.1665625 24.05523438 -59.176875 23.22765625 -59.1875 22.375 C-59.2184375 21.55257812 -59.249375 20.73015625 -59.28125 19.8828125 C-58.42985198 16.10753442 -56.59215688 13.69304079 -53.6875 11.25 C-50.8163631 9.66862885 -47.85253627 8.60347443 -44.75 7.5625 C-43.91114258 7.26778809 -43.07228516 6.97307617 -42.20800781 6.66943359 C-35.14026276 4.2529379 -28.06365969 2.46687914 -20.6875 1.25 C-19.18509766 0.97542969 -19.18509766 0.97542969 -17.65234375 0.6953125 C-11.76919095 0.0345446 -5.91578161 0.02494795 0 0 Z M-35.5 97.6875 C-40.28042375 103.28742497 -41.17277466 107.03982509 -40.9765625 114.30859375 C-40.38924317 120.28496478 -37.95518789 124.98231211 -33.6875 129.25 C-24.79903513 135.34992687 -12.28397112 136.02620044 -1.8125 134.625 C9.81881851 132.30162248 19.13950007 127.7549422 28.3125 120.25 C29.02422363 119.70859375 29.73594727 119.1671875 30.46923828 118.609375 C33.78355127 115.79305239 35.99554959 113.69216697 36.94799805 109.35839844 C37.0983757 106.11910753 37.01378555 102.9860523 36.8125 99.75 C36.77640625 98.64140625 36.7403125 97.5328125 36.703125 96.390625 C36.60942861 93.67342966 36.4784292 90.96358059 36.3125 88.25 C29.87540455 88.17311192 23.4384301 88.12105368 17.00097656 88.08520508 C14.81701228 88.07023981 12.63307741 88.04986028 10.44921875 88.02368164 C-14.06192185 87.28420315 -14.06192185 87.28420315 -35.5 97.6875 Z " fill="#00629C" transform="translate(76.6875,602.75)"/>
<path d="M0 0 C1.82325806 0.00749268 1.82325806 0.00749268 3.68334961 0.01513672 C24.62416739 0.41632831 41.64314198 7.12354688 56.75390625 21.8125 C72.05504742 37.96801961 77.79386529 57.99374143 77.6875 79.8125 C77.68012817 81.60034912 77.68012817 81.60034912 77.67260742 83.42431641 C77.56040773 91.84217033 76.9855401 99.44643094 74.375 107.5 C73.88193359 109.09714844 73.88193359 109.09714844 73.37890625 110.7265625 C67.55600428 127.61096337 56.40631734 142.43734219 40.546875 151.00390625 C27.54357783 157.13723484 14.88348729 159.89345527 0.5625 159.8125 C-0.48993896 159.80686035 -1.54237793 159.8012207 -2.62670898 159.79541016 C-22.53292309 159.4857409 -40.50428737 153.08454788 -55.1875 139.4375 C-64.25876632 129.96485022 -70.0761131 119.081152 -73.625 106.5 C-73.94339844 105.3759375 -74.26179687 104.251875 -74.58984375 103.09375 C-80.02035691 80.47078274 -77.55196145 53.9082537 -65.4375 33.8125 C-53.43889857 16.24035467 -37.85792832 5.75628963 -17.15722656 1.12841797 C-11.43109317 0.10968232 -5.80512223 -0.03167538 0 0 Z M-34.52734375 39.2421875 C-45.19112174 50.48932315 -48.55546839 64.98546942 -49 80.0625 C-48.55169473 94.58759088 -44.68578508 110.16620477 -34.33203125 120.984375 C-24.02801542 130.13302064 -12.46616592 134.65828525 1.375 134.5 C15.56055867 133.40621434 28.05229149 128.70584924 37.70703125 117.88671875 C42.07563987 112.15646589 45.26699885 106.38983534 47.375 99.5 C47.59929687 98.79230469 47.82359375 98.08460938 48.0546875 97.35546875 C52.22344633 81.05162429 49.92391782 63.03451385 42.09765625 48.32421875 C34.66154535 36.13304374 23.99798003 30.00097889 10.375 26.5 C-5.30540791 23.17972816 -22.80399309 28.50581298 -34.52734375 39.2421875 Z " fill="#00629C" transform="translate(657.625,602.5)"/>
<path d="M0 0 C1.27053223 0.00942627 2.54106445 0.01885254 3.85009766 0.02856445 C13.46870267 0.18247685 22.42902068 0.94259412 31.75 3.375 C32.43288086 3.55192383 33.11576172 3.72884766 33.81933594 3.91113281 C41.53078992 5.97727435 47.07059599 7.62914385 51.75 14.375 C53.15087154 18.0994325 53.14888506 21.39994762 51.625 25.125 C46.60315506 31.15121393 46.60315506 31.15121393 42.82128906 31.60791016 C37.17879082 31.59148551 32.09668551 30.75791717 26.625 29.4375 C9.27072952 25.56894034 -8.41055513 24.11650575 -24.25 33.375 C-25.24 33.705 -26.23 34.035 -27.25 34.375 C-28.40922128 36.10642854 -28.40922128 36.10642854 -29.25 38.375 C-29.641875 39.303125 -30.03375 40.23125 -30.4375 41.1875 C-31.63934187 45.90241812 -31.13826261 49.57406819 -28.98828125 53.93310547 C-23.56844266 61.54676075 -10.20923977 63.27759728 -1.5451355 65.62530518 C44.05519167 78.03689847 44.05519167 78.03689847 54.75 95.375 C59.75467269 105.5320848 59.65351073 117.63638746 56.75 128.375 C52.9751558 138.98878788 45.33836566 147.69609847 35.50390625 153.12890625 C12.70698924 163.44410699 -17.27597557 162.05459662 -40.4453125 153.50390625 C-54.60669334 147.95951747 -54.60669334 147.95951747 -59.25 142.375 C-60.76149553 137.84051342 -61.02441645 133.99758684 -58.9375 129.625 C-56.49550447 126.36900596 -55.16585593 124.68028531 -51.25 123.375 C-45.05735867 122.82973598 -40.56007314 124.47387401 -34.9375 126.75 C-24.10327099 131.09428743 -14.4358013 132.72291152 -2.75 132.6875 C-1.15478516 132.71166992 -1.15478516 132.71166992 0.47265625 132.73632812 C9.53237669 132.74188624 18.71508151 131.5724282 25.75 125.375 C29.40151803 120.25146376 30.66668864 115.58811191 29.75 109.375 C23.70898185 100.09772212 8.18019438 97.98791152 -1.8125 95.5 C-35.31833741 86.88171824 -35.31833741 86.88171824 -46.25 77.375 C-46.91257812 76.80910156 -47.57515625 76.24320313 -48.2578125 75.66015625 C-55.95777324 68.55621758 -58.52361114 60.21235353 -59.47265625 49.97265625 C-59.94227949 37.37450231 -56.16685989 26.05043167 -47.8125 16.625 C-46.966875 15.8825 -46.12125 15.14 -45.25 14.375 C-44.76144531 13.89546875 -44.27289063 13.4159375 -43.76953125 12.921875 C-31.9946241 1.84619037 -15.49823799 -0.17891333 0 0 Z " fill="#00629C" transform="translate(496.25,602.625)"/>
<path d="M0 0 C0.98274399 -0.00861557 1.96548798 -0.01723114 2.97801208 -0.02610779 C6.2241354 -0.04879467 9.46939707 -0.0420222 12.71557617 -0.03295898 C14.97613278 -0.03819435 17.23668719 -0.04447052 19.49723816 -0.05174255 C24.2358935 -0.0621526 28.97424868 -0.0575779 33.71289062 -0.04296875 C39.77581535 -0.02580426 45.83779032 -0.04924507 51.90060902 -0.08445835 C56.57018781 -0.10645809 61.23954043 -0.10498413 65.90915489 -0.09669304 C68.14379605 -0.09587448 70.37845398 -0.10271959 72.61304665 -0.11746407 C75.74391968 -0.13495122 78.87310019 -0.12033018 82.00390625 -0.09765625 C82.92106415 -0.10934845 83.83822205 -0.12104065 84.78317261 -0.13308716 C91.10594045 -0.04027202 95.27979962 1.51780504 100.19604492 5.53344727 C103.71141888 9.61581702 104.27390604 14.28214742 104.19604492 19.53344727 C103.38970523 28.33736026 96.48030648 34.47743026 90.84545898 40.69848633 C88.22090967 43.61827801 85.67983885 46.60797906 83.13354492 49.59594727 C82.13236343 50.76401939 81.13106196 51.93198868 80.12963867 53.09985352 C76.85038741 56.93267439 73.59443259 60.78498775 70.34033203 64.63916016 C66.47508708 69.2133449 62.57795132 73.75965909 58.67651367 78.30297852 C55.33312152 82.19928306 52.00817452 86.11054498 48.69604492 90.03344727 C44.90080691 94.52753867 41.08803563 99.00600335 37.25854492 103.47094727 C36.76765381 104.04361328 36.2767627 104.6162793 35.77099609 105.20629883 C33.12136742 108.29544347 30.46614193 111.37963285 27.80541992 114.45922852 C27.25362061 115.09932861 26.70182129 115.73942871 26.13330078 116.39892578 C25.07073627 117.63137288 24.00651195 118.86239141 22.94042969 120.09179688 C20.28928211 123.11901287 20.28928211 123.11901287 18.19604492 126.53344727 C19.14738312 126.53931351 20.09872131 126.54517975 21.07888794 126.55122375 C30.05403173 126.6084916 39.02893417 126.68127443 48.00383186 126.76916218 C52.61768973 126.81384758 57.23145966 126.85310774 61.84545898 126.87988281 C66.30007785 126.90593406 70.75435802 126.94634932 75.20876694 126.99663353 C76.90632787 127.01328994 78.60394737 127.02481185 80.30157852 127.03106117 C82.68358937 127.04071576 85.06473615 127.06879013 87.4465332 127.10107422 C88.14496841 127.09963913 88.84340363 127.09820404 89.56300354 127.09672546 C95.3083218 127.20651283 99.20722674 128.858653 103.57104492 132.53344727 C106.0529885 137.11549695 106.08332586 141.44090205 105.19604492 146.53344727 C103.52798019 149.70338578 101.44639059 151.90827443 98.19604492 153.53344727 C96.78253685 153.63565866 95.36439738 153.67718181 93.94723511 153.68734741 C93.05573257 153.69594788 92.16423004 153.70454834 91.24571228 153.71340942 C89.77455711 153.71979935 89.77455711 153.71979935 88.27368164 153.72631836 C86.727071 153.73858459 86.727071 153.73858459 85.1492157 153.75109863 C81.72472723 153.77598274 78.30028036 153.79247842 74.87573242 153.80688477 C73.1227352 153.81487028 73.1227352 153.81487028 71.33432388 153.82301712 C65.14598496 153.84976467 58.9576663 153.8691325 52.76928711 153.88354492 C46.38017861 153.90017609 39.99158759 153.9449372 33.60267448 153.99591637 C28.68866391 154.02959693 23.77477586 154.04112346 18.86066055 154.046772 C16.50597311 154.05348458 14.15129374 154.06870667 11.7967186 154.09266281 C8.49564457 154.12432632 5.19596179 154.12434838 1.89477539 154.11694336 C0.4418383 154.14155136 0.4418383 154.14155136 -1.04045105 154.16665649 C-7.53130878 154.10721924 -11.75750018 152.66840528 -16.80395508 148.53344727 C-20.34651615 144.64805771 -21.18453419 140.96056674 -21.06958008 135.70141602 C-20.16893817 128.35058872 -15.08311953 123.35661646 -10.22192383 118.16235352 C-7.84002582 115.57266472 -5.62893741 112.90348805 -3.42895508 110.15844727 C0.25241181 105.60484014 4.12378965 101.2976221 8.10961914 97.0144043 C11.10017133 93.78168523 13.93376178 90.4665706 16.69604492 87.03344727 C20.33103882 82.51566914 24.16314782 78.2552621 28.11010742 74.01391602 C31.1004585 70.7813298 33.93390821 67.4663886 36.69604492 64.03344727 C39.89536863 60.05714495 43.22195725 56.26683104 46.69604492 52.53344727 C50.97131078 47.93731364 55.01083138 43.20627367 58.93041992 38.29907227 C60.85942164 35.94435982 62.83030974 33.6481074 64.83764648 31.3605957 C65.78151215 30.28427887 65.78151215 30.28427887 66.7444458 29.18621826 C67.22347351 28.64080383 67.70250122 28.0953894 68.19604492 27.53344727 C67.24470673 27.52980164 66.29336853 27.52615601 65.3132019 27.5223999 C56.33801961 27.4854231 47.36317958 27.42762119 38.38825798 27.34954453 C33.77436802 27.31007254 29.16066883 27.27788274 24.54663086 27.26245117 C20.09194216 27.24728268 15.63777793 27.21283394 11.18332291 27.16513824 C9.48576548 27.15032639 7.78813316 27.14240636 6.09051132 27.14156342 C3.70829417 27.13919133 1.32752362 27.1120947 -1.05444336 27.0793457 C-1.75287857 27.08437607 -2.45131378 27.08940643 -3.1709137 27.09458923 C-9.04007463 26.97013897 -12.42431819 24.67512046 -16.67895508 20.84594727 C-18.4781474 17.1476075 -18.33118156 13.56347985 -17.80395508 9.53344727 C-14.22041705 1.04612035 -8.36366441 -0.05911877 0 0 Z " fill="#00629C" transform="translate(305.803955078125,605.466552734375)"/>
<path d="M0 0 C1.13501953 0.45246094 1.13501953 0.45246094 2.29296875 0.9140625 C6.57558236 2.83304783 9.76951925 4.72491189 12 9 C12.88449618 13.29304243 13.12307324 17.12697982 10.8125 20.98046875 C7.39546374 24.43857516 4.4451926 25.36292599 -0.375 25.4375 C-3.78408372 25.2563634 -7.12230401 24.85320427 -10.5 24.375 C-17.69538127 23.46910667 -25.04565358 24.7743348 -31 29 C-31.66 29 -32.32 29 -33 29 C-36.59367283 37.47080025 -37.37508457 44.77914081 -37.625 53.9375 C-37.66367187 55.09830078 -37.70234375 56.25910156 -37.7421875 57.45507812 C-37.83595387 60.30323169 -37.92165917 63.15138738 -38 66 C-36.75911621 65.97381592 -35.51823242 65.94763184 -34.23974609 65.9206543 C-29.62176652 65.82993418 -25.00386521 65.77267139 -20.38525391 65.7253418 C-18.38902527 65.70024728 -16.39288807 65.66616374 -14.39697266 65.62280273 C-11.52223112 65.56192754 -8.64870752 65.53373976 -5.7734375 65.51171875 C-4.88570648 65.48591232 -3.99797546 65.4601059 -3.08334351 65.43351746 C1.21189885 65.43158732 4.11005598 65.61956944 7.54833984 68.34301758 C10.44824235 71.48578187 10.93103623 73.08623003 11.25 77.3125 C10.96936483 81.45186869 10.38863047 83.60968579 8 87 C2.47870803 89.99813281 -2.00783368 90.41061198 -8.21484375 90.29296875 C-9.49845543 90.28660149 -9.49845543 90.28660149 -10.80799866 90.28010559 C-13.5181642 90.26342789 -16.22756248 90.22579705 -18.9375 90.1875 C-20.7844944 90.17243902 -22.63150056 90.1587531 -24.47851562 90.14648438 C-28.98596884 90.11356026 -33.49285472 90.06185469 -38 90 C-37.99585193 90.91937568 -37.99585193 90.91937568 -37.99162006 91.8573246 C-37.92532652 106.78061695 -37.87570302 121.70389507 -37.84456348 136.62729836 C-37.82910382 143.84419676 -37.80803162 151.06099678 -37.77368164 158.27783203 C-37.74375159 164.56906017 -37.72441845 170.86021705 -37.71773452 177.15151441 C-37.71382831 180.48181412 -37.70308694 183.81186281 -37.68280983 187.14210892 C-37.66105605 190.86260349 -37.65803231 194.58267479 -37.65942383 198.30322266 C-37.648638 199.40373962 -37.63785217 200.50425659 -37.6267395 201.63812256 C-37.64913623 207.16642144 -37.79447477 211.26810398 -41 216 C-44.6799016 219.40390898 -47.26528618 220.8690782 -52.3125 221.25 C-57.35959471 220.90782409 -60.35856544 219.43101247 -64.1473999 216.12788391 C-67.01153461 211.29215014 -66.52420517 206.66032311 -66.45410156 201.14135742 C-66.45468567 199.94093811 -66.45526978 198.7405188 -66.45587158 197.50372314 C-66.45356572 194.22079195 -66.43353469 190.9385467 -66.40557575 187.65575194 C-66.3805353 184.22181043 -66.37821804 180.78785479 -66.37347412 177.35383606 C-66.36105203 170.85504307 -66.32824108 164.35651989 -66.28807616 157.8578456 C-66.24333436 150.45766679 -66.2213654 143.05747494 -66.20129442 135.6571945 C-66.15950754 120.43797351 -66.08917073 105.21902158 -66 90 C-66.57443848 90.01571045 -67.14887695 90.0314209 -67.74072266 90.04760742 C-70.36871309 90.11035513 -72.99654537 90.14911506 -75.625 90.1875 C-76.52863281 90.21263672 -77.43226563 90.23777344 -78.36328125 90.26367188 C-84.57617022 90.33169621 -88.87332739 89.58759113 -93.8125 85.5 C-96.57107956 82.01547845 -96.35901115 78.23633156 -96 74 C-93.97333762 70.29609979 -92.51955484 68.34636989 -89 66 C-86.5480957 65.77294922 -86.5480957 65.77294922 -83.67578125 65.8046875 C-82.64775391 65.81113281 -81.61972656 65.81757812 -80.56054688 65.82421875 C-79.48869141 65.84097656 -78.41683594 65.85773438 -77.3125 65.875 C-76.22904297 65.88402344 -75.14558594 65.89304687 -74.02929688 65.90234375 C-71.3526429 65.9259266 -68.67643203 65.95883874 -66 66 C-66.01571045 65.15405273 -66.0314209 64.30810547 -66.04760742 63.43652344 C-66.09933945 60.23830516 -66.13663906 57.04030309 -66.16479492 53.84179688 C-66.17969923 52.46867774 -66.20002997 51.09560461 -66.22631836 49.72265625 C-66.51390288 34.29459274 -64.10440387 20.55790152 -53.5 8.75 C-39.64547527 -4.27217925 -17.38904106 -7.02769535 0 0 Z " fill="#00629B" transform="translate(849,540)"/>
<path d="M0 0 C2.30111743 2.25511523 2.9549748 3.62443494 3.34057617 6.84082031 C3.3170105 8.44328613 3.3170105 8.44328613 3.29296875 10.078125 C3.2784668 11.81835938 3.2784668 11.81835938 3.26367188 13.59375 C3.23853516 14.8003125 3.21339844 16.006875 3.1875 17.25 C3.16719727 19.08304688 3.16719727 19.08304688 3.14648438 20.953125 C3.1111398 23.96919498 3.0617956 26.98437487 3 30 C4.73286255 29.9685791 4.73286255 29.9685791 6.50073242 29.93652344 C10.79634148 29.86399602 15.09189665 29.81815407 19.38793945 29.78027344 C21.24545398 29.76018695 23.10290551 29.73291222 24.96020508 29.69824219 C27.63378463 29.64959263 30.30652656 29.62700191 32.98046875 29.609375 C33.80773972 29.58872986 34.63501068 29.56808472 35.48735046 29.54681396 C39.53299788 29.5452478 41.50177981 29.68361762 45.00146484 31.90600586 C47.97328749 35.01977606 48.68354208 37.76737527 49 42 C48.35226547 46.31823022 47.69828754 48.31961727 44.5625 51.375 C40.02759045 54.2507963 36.02652536 54.13238583 30.83203125 54.09765625 C30.03721848 54.0962413 29.2424057 54.09482635 28.42350769 54.09336853 C25.88646675 54.08777378 23.34951425 54.07522228 20.8125 54.0625 C19.09179815 54.05748432 17.37109492 54.05292153 15.65039062 54.04882812 C11.4335597 54.03780607 7.21679484 54.02054506 3 54 C3.06125463 66.39609644 3.13839262 78.79198309 3.23571491 91.18785191 C3.28041031 96.94398659 3.31966848 102.70005064 3.34643555 108.45629883 C3.3724765 114.01314159 3.41288503 119.56971238 3.46318626 125.12638664 C3.47984952 127.24458364 3.49136716 129.36282768 3.49761391 131.48108101 C3.50726066 134.45195031 3.53532757 137.42212465 3.56762695 140.39282227 C3.56619186 141.26532623 3.56475677 142.1378302 3.5632782 143.03677368 C3.64584497 148.41943058 4.41799383 152.24187417 7 157 C12.32312027 160.80222877 18.52828656 161.46851733 24.89453125 160.609375 C26.93165522 160.243268 28.96811462 159.87344458 31.00390625 159.5 C41.66512737 157.72081316 41.66512737 157.72081316 45.91796875 160.05078125 C48.09007074 161.7998135 49.74735826 163.49471651 51 166 C51.25909672 169.951225 51.34835953 172.93003859 50.125 176.6875 C43.25778344 184.16064743 32.3746609 185.91691173 22.66796875 186.3359375 C8.64806851 186.56577193 -4.24931232 186.18755642 -15 176 C-20.18336883 170.81663117 -24.65585259 162.53143914 -25.12304783 155.02226734 C-25.12212604 154.2654753 -25.12120424 153.50868326 -25.12025452 152.72895813 C-25.12162918 151.85817627 -25.12300385 150.98739441 -25.12442017 150.09022522 C-25.12082489 149.13788498 -25.11722961 148.18554474 -25.11352539 147.2043457 C-25.11367142 146.19928986 -25.11381744 145.19423401 -25.1139679 144.15872192 C-25.11327029 140.83105321 -25.10548494 137.50344021 -25.09765625 134.17578125 C-25.09579153 131.8707838 -25.09436788 129.56578595 -25.09336853 127.26078796 C-25.08954759 121.18955392 -25.07972089 115.11834374 -25.06866455 109.04711914 C-25.05844135 102.85368167 -25.05386896 96.66024035 -25.04882812 90.46679688 C-25.03809827 78.31118742 -25.0210269 66.15559569 -25 54 C-25.7113208 54.01571045 -26.4226416 54.0314209 -27.15551758 54.04760742 C-30.37443104 54.10991915 -33.59321768 54.14897867 -36.8125 54.1875 C-37.93205078 54.21263672 -39.05160156 54.23777344 -40.20507812 54.26367188 C-41.27822266 54.27333984 -42.35136719 54.28300781 -43.45703125 54.29296875 C-44.44678955 54.3086792 -45.43654785 54.32438965 -46.45629883 54.34057617 C-49 54 -49 54 -50.79956055 52.67504883 C-52 51 -52 51 -52.75 47.90625 C-51.57045109 41.7627661 -47.45147168 38.67449122 -43 34.5 C-42.16082031 33.68402344 -41.32164062 32.86804688 -40.45703125 32.02734375 C-36.70172669 28.4001271 -32.88545912 24.86824858 -28.9296875 21.4609375 C-24.43262573 17.5743366 -20.28914944 13.3622047 -16.125 9.125 C-14.62991839 7.60449184 -13.13263356 6.08614589 -11.6328125 4.5703125 C-10.98199707 3.90789551 -10.33118164 3.24547852 -9.66064453 2.56298828 C-6.58703633 -0.3298726 -4.13924768 -0.42237221 0 0 Z " fill="#00629B" transform="translate(917,576)"/>
<path d="M0 0 C6.56513043 5.71093131 10.53763433 11.62945897 11.23828125 20.4921875 C11.25759577 21.84882647 11.26107339 23.20576873 11.25 24.5625 C11.24262817 25.62476807 11.24262817 25.62476807 11.23510742 26.70849609 C11.04560327 35.14580423 8.93421126 40.55133034 2.9375 46.6875 C-2.43092105 50.6875 -2.43092105 50.6875 -5.0625 50.6875 C-5.0625 51.3475 -5.0625 52.0075 -5.0625 52.6875 C-4.3303125 52.78933594 -3.598125 52.89117188 -2.84375 52.99609375 C3.26497857 54.51469622 8.37128805 59.38478849 11.875 64.5 C16.18968156 72.26344087 16.91400913 81.10313488 14.9375 89.6875 C11.34014685 99.62067582 6.06270334 106.41856547 -3.5 111 C-11.59712555 114.50188796 -19.90869616 115.04814866 -28.625 115 C-29.67840576 114.99508545 -30.73181152 114.9901709 -31.81713867 114.98510742 C-44.24812803 114.8000801 -57.33544483 113.61007856 -68.0625 106.6875 C-70.49192229 104.00490067 -71.02845469 102.92156148 -71.5625 99.25 C-71.0625 95.6875 -71.0625 95.6875 -69 92.8125 C-65.40797071 90.21401073 -63.48437038 89.93021744 -59.0625 89.6875 C-55.80518084 90.26753612 -52.6726547 91.19558735 -49.5 92.125 C-36.38662688 95.65773888 -22.83434334 96.84680896 -10.33984375 90.25 C-7.20049032 88.09606969 -6.28377969 86.2834902 -5.0625 82.6875 C-4.85166458 78.46235815 -5.79648398 75.26386804 -7.5625 71.4375 C-15.3040496 62.92179544 -28.18449685 63.12984777 -38.984375 62.5234375 C-42.78444165 62.28115137 -44.93248403 61.77506178 -48.125 59.625 C-50.27923066 56.35890836 -50.64982811 54.55602575 -50.7265625 50.75 C-49.62091169 47.31597867 -47.91209793 45.86509223 -45.0625 43.6875 C-42.03904052 42.90689773 -39.04857325 42.77007754 -35.9375 42.625 C-27.37803933 41.96978104 -18.52100997 41.26467784 -11.9375 35.125 C-8.81426595 31.06479574 -8.71695809 27.69785771 -9.0625 22.6875 C-10.79376696 18.03472003 -13.65663352 16.52873808 -17.9296875 14.484375 C-30.01889748 9.96752731 -43.86754983 12.68242578 -55.4375 17.4375 C-59.34182116 18.78381764 -61.17871135 19.01151886 -65.0625 17.6875 C-67.67235099 15.71247763 -68.82662494 14.30077515 -70 11.25 C-70.08678689 7.69173734 -69.3356081 6.44278255 -67.0625 3.6875 C-50.73717279 -10.31814264 -17.36663924 -12.64063577 0 0 Z " fill="#00629C" transform="translate(244.0625,553.3125)"/>
<path d="M0 0 C6.13029008 4.97595758 9.71434196 10.74894598 11.69921875 18.421875 C12.02594345 22.5677342 12.05103334 26.70595274 12.0703125 30.86328125 C12.07934097 32.06371567 12.08836945 33.26415009 12.09767151 34.5009613 C12.11215112 37.03341179 12.12105504 39.56589949 12.12475586 42.09838867 C12.13668814 45.97443148 12.18593039 49.84890053 12.23632812 53.72460938 C12.24578862 56.18749224 12.25302544 58.65038487 12.2578125 61.11328125 C12.27734482 62.27171036 12.29687714 63.43013947 12.31700134 64.62367249 C12.26677341 73.5606244 12.26677341 73.5606244 9.32446289 76.65600586 C6.69921875 78.421875 6.69921875 78.421875 4.13671875 78.984375 C0.80336977 78.21514062 -0.35280559 77.23561763 -2.30078125 74.421875 C-2.55078125 70.671875 -2.55078125 70.671875 -2.30078125 67.421875 C-2.77386719 67.80859375 -3.24695313 68.1953125 -3.734375 68.59375 C-15.22626871 77.64389631 -26.88756874 79.88218685 -41.30078125 78.421875 C-47.9686417 76.67747141 -52.39249062 73.17291711 -56.18359375 67.46484375 C-59.2889286 61.78620694 -60.27789577 55.82777322 -58.87109375 49.484375 C-56.63659258 42.42224783 -51.97032065 36.57387228 -45.42578125 33.046875 C-36.10216482 29.16632315 -27.20456635 29.16916509 -17.23828125 29.296875 C-15.8821681 29.30692869 -14.5260477 29.3160503 -13.16992188 29.32421875 C-9.88002025 29.34763442 -6.59049687 29.38043077 -3.30078125 29.421875 C-3.42218241 27.82612843 -3.55451048 26.2312108 -3.69140625 24.63671875 C-3.76391602 23.74847412 -3.83642578 22.86022949 -3.91113281 21.94506836 C-4.4732522 18.30502833 -5.89207766 16.16512076 -8.30078125 13.421875 C-10.81442881 11.59568413 -10.81442881 11.59568413 -13.30078125 10.421875 C-13.96078125 10.091875 -14.62078125 9.761875 -15.30078125 9.421875 C-18.64853239 9.15376242 -22.00600265 9.19020826 -25.36328125 9.171875 C-26.7390332 9.1409375 -26.7390332 9.1409375 -28.14257812 9.109375 C-33.70891466 9.07781533 -38.19720995 9.72107346 -43.38085938 11.78662109 C-46.29743368 12.75164225 -48.43706374 12.39972976 -51.30078125 11.421875 C-53.30078125 8.421875 -53.30078125 8.421875 -53.42578125 4.984375 C-52.30078125 1.421875 -52.30078125 1.421875 -49.05078125 -0.828125 C-34.15293414 -6.93466304 -13.96261408 -9.57707315 0 0 Z " fill="#FBFCFE" transform="translate(364.30078125,231.578125)"/>
<path d="M0 0 C1.66604027 -0.00218285 1.66604027 -0.00218285 3.36573792 -0.00440979 C5.71170681 -0.0027518 8.05768668 0.00879811 10.40356445 0.02954102 C13.98761406 0.05846228 17.57018106 0.05015326 21.15429688 0.03710938 C23.43620508 0.04334806 25.71810863 0.05174002 28 0.0625 C29.06890976 0.05956436 30.13781952 0.05662872 31.23912048 0.05360413 C36.71587865 0.12276336 40.90610541 0.27475967 45.56640625 3.49609375 C48.06945003 7.25065942 48.01920699 9.04355309 47.56640625 13.49609375 C44.94701436 18.62099093 40.84226707 22.58460436 36.9765625 26.80859375 C34.67363621 29.37652453 32.48401893 32.00102337 30.31640625 34.68359375 C26.192641 39.77892672 21.92950167 44.73722286 17.61035156 49.66674805 C12.49324524 55.52448818 7.53174081 61.50981455 2.56640625 67.49609375 C3.75194092 67.51067627 4.93747559 67.52525879 6.15893555 67.5402832 C10.56679102 67.59835313 14.97414029 67.67558559 19.3815918 67.75854492 C21.28743256 67.79175337 23.19337071 67.819798 25.09936523 67.8425293 C27.8427064 67.87615043 30.58515847 67.9284697 33.328125 67.984375 C34.17726974 67.99076492 35.02641449 67.99715485 35.90129089 68.0037384 C41.03466389 68.13068012 44.75592545 68.68561295 48.56640625 72.49609375 C48.95678905 76.00953894 49.09411302 77.81100362 46.89732361 80.66296387 C44.02353753 82.92302818 42.5826433 83.00200827 38.95922852 83.01367188 C37.2721151 83.03258484 37.2721151 83.03258484 35.55091858 83.05187988 C34.34044357 83.04378296 33.12996857 83.03568604 31.8828125 83.02734375 C30.0113279 83.03308411 30.0113279 83.03308411 28.10203552 83.03894043 C25.4628858 83.04166308 22.82521733 83.0362925 20.1862793 83.01757812 C16.81222774 82.9948107 13.43945051 83.00789829 10.0654459 83.03186798 C6.83785651 83.04984364 3.61041856 83.03723612 0.3828125 83.02734375 C-0.82563828 83.03544067 -2.03408905 83.0435376 -3.27915955 83.05187988 C-4.97100121 83.03296692 -4.97100121 83.03296692 -6.69702148 83.01367188 C-7.68645248 83.0104895 -8.67588348 83.00730713 -9.69529724 83.00402832 C-13.21858887 82.35048273 -14.8948531 80.98338018 -17.43359375 78.49609375 C-18.62109375 75.24609375 -18.62109375 75.24609375 -18.43359375 71.49609375 C-16.93395736 68.4264155 -14.68320394 66.04538558 -12.43359375 63.49609375 C-11.43873523 62.33320099 -10.4453719 61.1690282 -9.453125 60.00390625 C-4.61034925 54.34509462 0.30662646 48.75773198 5.31640625 43.24609375 C8.30503878 39.95316409 11.1502423 36.58292606 13.94140625 33.12109375 C17.27726521 28.9898687 20.75183938 25.03974927 24.35546875 21.14453125 C24.85925049 20.59756592 25.36303223 20.05060059 25.88208008 19.48706055 C27.10885475 18.15550797 28.33744004 16.8256239 29.56640625 15.49609375 C28.31504883 15.48674805 27.06369141 15.47740234 25.77441406 15.46777344 C21.12984675 15.42788893 16.4859429 15.36213434 11.84179688 15.28857422 C9.83211798 15.26035568 7.82232791 15.23914554 5.8125 15.22509766 C2.92259776 15.2036804 0.03403335 15.15703672 -2.85546875 15.10546875 C-3.75352234 15.10424011 -4.65157593 15.10301147 -5.57684326 15.10174561 C-11.79674903 14.95583499 -11.79674903 14.95583499 -14.99707031 12.64550781 C-16.98703072 9.66800757 -17.09100649 8.00229504 -16.43359375 4.49609375 C-11.94175806 -0.82459616 -6.42566511 -0.06740451 0 0 Z " fill="#F8FBFE" transform="translate(620.43359375,226.50390625)"/>
<path d="M0 0 C1.23814453 0.01804687 2.47628906 0.03609375 3.75195312 0.0546875 C6.77297365 0.10134419 9.7923031 0.16679017 12.8125 0.25 C13.86365418 12.4300405 13.86365418 12.4300405 11.60546875 16.33984375 C9.76404521 17.96564392 7.98196904 19.09602711 5.8125 20.25 C4.56726563 20.95382812 4.56726563 20.95382812 3.296875 21.671875 C-3.94688196 25.53232033 -10.94136961 27.38869175 -19.1875 26.25 C-23.59212366 24.35813013 -26.52499405 22.24375893 -29.1875 18.25 C-29.87237963 13.99737535 -29.70084504 10.35002509 -27.875 6.4375 C-19.73637597 -0.18696142 -10.04237464 -0.28151131 0 0 Z " fill="#1A72F1" transform="translate(349.1875,271.75)"/>
</svg>
